<?xml version="1.0" encoding="UTF-8"?>
<svg id="Layer_1" xmlns="http://www.w3.org/2000/svg" xmlns:xlink="http://www.w3.org/1999/xlink" version="1.1" viewBox="0 0 2000 2000">
  <!-- Generator: Adobe Illustrator 29.2.1, SVG Export Plug-In . SVG Version: 2.1.0 Build 116)  -->
  <defs>
    <style>
      .st0 {
        fill: none;
      }

      .st1 {
        fill: url(#New_Pattern1);
      }

      .st2 {
        fill: #231f20;
      }

      .st3 {
        fill: #f6cc6f;
      }

      .st4 {
        fill: url(#New_Pattern);
      }
    </style>
    <pattern id="New_Pattern" data-name="New Pattern" x="0" y="0" width="459.3" height="458.6" patternTransform="translate(4318.7 3955.1) scale(1.7)" patternUnits="userSpaceOnUse" viewBox="0 0 459.3 458.6">
      <g>
        <rect class="st0" width="459.3" height="458.6"/>
        <g>
          <path class="st3" d="M67.4,25.2C58.2,12.5,45.8,4,33.3,1.9,23.1.2,13.1,4.1,6.6,12.2.1,20.3-1.4,30.8,2.4,40.2c11.7,29.1,63.8,23.4,66.1,23.1l-.7-5.9c-.5,0-49.9,5.5-59.9-19.4-3-7.4-1.7-15.7,3.4-22.1,5.2-6.4,13-9.5,21.1-8.2,21.8,3.6,44.4,29.3,46,71.7-2.3.7-6.9,1.7-14.1,2v-10.9h-5.9v10.9c-2.7,0-5.6-.2-8.8-.5v-11.3h-5.9v10.6c-2.9-.4-5.9-.8-9.2-1.4v-11.5h-5.9v16.4l2.4.5c11.9,2.3,21.5,3.1,29.1,3.1,15.2,0,22.2-3.1,22.6-3.3l1.8-.8v-1.9c-.5-22.1-6.3-41.6-16.9-56.3Z"/>
          <path class="st3" d="M115.5,19.3h0c-3.6-9.1-9.4-15-17.1-17.7-15.8-5.5-34,4.7-34.8,5.1l2.9,5.1c.2,0,16.7-9.3,29.9-4.7,6,2.1,10.5,6.8,13.5,14.1,7.9,23.3-21.1,33.5-22.4,34l1.9,5.6c.7-.3,18.3-6.4,25.1-20.3,3.2-6.6,3.5-13.7.9-21.3Z"/>
        </g>
        <g>
          <path class="st3" d="M304.3,26c-9.2-12.7-21.6-21.2-34.1-23.3-10.2-1.7-20.1,2.2-26.6,10.3-6.5,8.1-8.1,18.5-4.3,28,11.7,29.1,63.8,23.4,66.1,23.1l-.7-5.9c-.5,0-49.9,5.5-59.9-19.4-3-7.4-1.7-15.7,3.4-22.1,5.2-6.4,13-9.5,21.1-8.2,21.8,3.6,44.4,29.3,46,71.7-2.3.7-6.9,1.7-14.1,2v-10.9h-5.9v10.9c-2.7,0-5.6-.2-8.8-.5v-11.3h-5.9v10.6c-2.9-.4-5.9-.8-9.2-1.4v-11.5h-5.9v16.4l2.4.5c11.9,2.3,21.5,3.1,29.1,3.1,15.2,0,22.2-3.1,22.6-3.3l1.8-.8v-1.9c-.5-22.1-6.3-41.6-16.9-56.3Z"/>
          <path class="st3" d="M352.4,20.1h0c-3.6-9.1-9.4-15-17.1-17.7-15.8-5.5-34,4.7-34.8,5.1l2.9,5.1c.2,0,16.7-9.3,29.9-4.7,6,2.1,10.5,6.8,13.5,14.1,7.9,23.3-21.1,33.5-22.4,34l1.9,5.6c.7-.3,18.3-6.4,25.1-20.3,3.2-6.6,3.5-13.7.9-21.3Z"/>
        </g>
        <g>
          <path class="st3" d="M195.8,67.1c12.7-9.2,21.2-21.6,23.3-34.1,1.7-10.2-2.2-20.1-10.3-26.6-8.1-6.5-18.5-8.1-28-4.3-29.1,11.7-23.4,63.8-23.1,66.1l5.9-.7c0-.5-5.5-49.9,19.4-59.9,7.4-3,15.7-1.7,22.1,3.4,6.4,5.2,9.5,13,8.2,21.1-3.6,21.8-29.3,44.4-71.7,46-.7-2.3-1.7-6.9-2-14.1h10.9v-5.9h-10.9c0-2.7.2-5.6.5-8.8h11.3v-5.9h-10.6c.4-2.9.8-5.9,1.4-9.2h11.5v-5.9h-16.4l-.5,2.4c-2.3,11.9-3.1,21.5-3.1,29.1,0,15.2,3.1,22.2,3.3,22.6l.8,1.8h1.9c22.1-.5,41.6-6.3,56.3-16.9Z"/>
          <path class="st3" d="M201.7,115.2h.1c9-3.7,14.9-9.4,17.6-17.1,5.5-15.8-4.7-34-5.1-34.8l-5.1,2.9c0,.2,9.3,16.7,4.7,29.9-2.1,6-6.8,10.5-14.1,13.5-23.3,7.9-33.5-21.1-34-22.4l-5.6,1.9c.3.7,6.4,18.3,20.3,25.1,6.6,3.2,13.7,3.5,21.3.9Z"/>
          <path class="st3" d="M150.4,63.9"/>
        </g>
        <g>
          <path class="st3" d="M395.6,67.1c-12.7-9.2-21.2-21.6-23.3-34.1-1.7-10.2,2.2-20.1,10.3-26.6,8.1-6.5,18.5-8.1,28-4.3,29.1,11.7,23.4,63.8,23.1,66.1l-5.9-.7c0-.5,5.5-49.9-19.4-59.9-7.4-3-15.7-1.7-22.1,3.4-6.4,5.2-9.5,13-8.2,21.1,3.6,21.8,29.3,44.4,71.7,46,.7-2.3,1.7-6.9,2-14.1h-10.9v-5.9h10.9c0-2.7-.2-5.6-.5-8.8h-11.3v-5.9h10.6c-.4-2.9-.8-5.9-1.4-9.2h-11.5v-5.9h16.4l.5,2.4c2.3,11.9,3.1,21.5,3.1,29.1,0,15.2-3.1,22.2-3.3,22.6l-.8,1.8h-1.9c-22.1-.5-41.6-6.3-56.3-16.9Z"/>
          <path class="st3" d="M389.8,115.2h-.1c-9-3.7-14.9-9.4-17.6-17.1-5.5-15.8,4.7-34,5.1-34.8l5.1,2.9c0,.2-9.3,16.7-4.7,29.9,2.1,6,6.8,10.5,14.1,13.5,23.3,7.9,33.5-21.1,34-22.4l5.6,1.9c-.3.7-6.4,18.3-20.3,25.1-6.6,3.2-13.7,3.5-21.3.9Z"/>
        </g>
        <g>
          <path class="st3" d="M392.3,147.1c9.2-12.7,21.6-21.2,34.1-23.3,10.2-1.7,20.1,2.2,26.6,10.3,6.5,8.1,8.1,18.5,4.3,28-11.7,29.1-63.8,23.4-66.1,23.1l.7-5.9c.5,0,49.9,5.5,59.9-19.4,3-7.4,1.7-15.7-3.4-22.1-5.2-6.4-13-9.5-21.1-8.2-21.8,3.6-44.4,29.3-46,71.7,2.3.7,6.9,1.7,14.1,2v-10.9h5.9v10.9c2.7,0,5.6-.2,8.8-.5v-11.3h5.9v10.6c2.9-.4,5.9-.8,9.2-1.4v-11.5h5.9v16.4l-2.4.5c-11.9,2.3-21.5,3.1-29.1,3.1-15.2,0-22.2-3.1-22.6-3.3l-1.8-.8v-1.9c.5-22.1,6.3-41.6,16.9-56.3Z"/>
          <path class="st3" d="M344.2,141.2h0c3.6-9.1,9.4-15,17.1-17.7,15.8-5.5,34,4.7,34.8,5.1l-2.9,5.1c-.2,0-16.7-9.3-29.9-4.7-6,2.1-10.5,6.8-13.5,14.1-7.9,23.3,21.1,33.5,22.4,34l-1.9,5.6c-.7-.3-18.3-6.4-25.1-20.3-3.2-6.6-3.5-13.7-.9-21.3Z"/>
        </g>
        <g>
          <path class="st3" d="M153.6,146.3c9.2-12.7,21.6-21.2,34.1-23.3,10.2-1.7,20.1,2.2,26.6,10.3,6.5,8.1,8.1,18.5,4.3,28-11.7,29.1-63.8,23.4-66.1,23.1l.7-5.9c.5,0,49.9,5.5,59.9-19.4,3-7.4,1.7-15.7-3.4-22.1-5.2-6.4-13-9.5-21.1-8.2-21.8,3.6-44.4,29.3-46,71.7,2.3.7,6.9,1.7,14.1,2v-10.9h5.9v10.9c2.7,0,5.6-.2,8.8-.5v-11.3h5.9v10.6c2.9-.4,5.9-.8,9.2-1.4v-11.5h5.9v16.4l-2.4.5c-11.9,2.3-21.5,3.1-29.1,3.1-15.2,0-22.2-3.1-22.6-3.3l-1.8-.8v-1.9c.5-22.1,6.3-41.6,16.9-56.3Z"/>
          <path class="st3" d="M105.5,140.4h0c3.6-9.1,9.4-15,17.1-17.7,15.8-5.5,34,4.7,34.8,5.1l-2.9,5.1c-.2,0-16.7-9.3-29.9-4.7-6,2.1-10.5,6.8-13.5,14.1-7.9,23.3,21.1,33.5,22.4,34l-1.9,5.6c-.7-.3-18.3-6.4-25.1-20.3-3.2-6.6-3.5-13.7-.9-21.3Z"/>
        </g>
        <g>
          <path class="st3" d="M262.9,174.3c-12.7-9.2-21.2-21.6-23.3-34.1-1.7-10.2,2.2-20.1,10.3-26.6,8.1-6.5,18.5-8.1,28-4.3,29.1,11.7,23.4,63.8,23.1,66.1l-5.9-.7c0-.5,5.5-49.9-19.4-59.9-7.4-3-15.7-1.7-22.1,3.4-6.4,5.2-9.5,13-8.2,21.1,3.6,21.8,29.3,44.4,71.7,46,.7-2.3,1.7-6.9,2-14.1h-10.9v-5.9h10.9c0-2.7-.2-5.6-.5-8.8h-11.3v-5.9h10.6c-.4-2.9-.8-5.9-1.4-9.2h-11.5v-5.9h16.4l.5,2.4c2.3,11.9,3.1,21.5,3.1,29.1,0,15.2-3.1,22.2-3.3,22.6l-.8,1.8h-1.9c-22.1-.5-41.6-6.3-56.3-16.9Z"/>
          <path class="st3" d="M257.1,222.4h-.1c-9-3.7-14.9-9.4-17.6-17.1-5.5-15.8,4.7-34,5.1-34.8l5.1,2.9c0,.2-9.3,16.7-4.7,29.9,2.1,6,6.8,10.5,14.1,13.5,23.3,7.9,33.5-21.1,34-22.4l5.6,1.9c-.3.7-6.4,18.3-20.3,25.1-6.6,3.2-13.7,3.5-21.3.9Z"/>
        </g>
        <g>
          <path class="st3" d="M62.3,179.5c12.7-9.2,21.2-21.6,23.3-34.1,1.7-10.2-2.2-20.1-10.3-26.6-8.1-6.5-18.5-8.1-28-4.3-29.1,11.7-23.4,63.8-23.1,66.1l5.9-.7c0-.5-5.5-49.9,19.4-59.9,7.4-3,15.7-1.7,22.1,3.4,6.4,5.2,9.5,13,8.2,21.1-3.6,21.8-29.3,44.4-71.7,46-.7-2.3-1.7-6.9-2-14.1h10.9v-5.9H6c0-2.7.2-5.6.5-8.8h11.3v-5.9H7c.4-2.9.8-5.9,1.4-9.2h11.5v-5.9H3.5l-.5,2.4c-2.3,11.9-3.1,21.5-3.1,29.1,0,15.2,3.1,22.2,3.3,22.6l.8,1.8h1.9c22.1-.5,41.6-6.3,56.3-16.9Z"/>
          <path class="st3" d="M68.2,227.6h.1c9-3.7,14.9-9.4,17.6-17.1,5.5-15.8-4.7-34-5.1-34.8l-5.1,2.9c0,.2,9.3,16.7,4.7,29.9-2.1,6-6.8,10.5-14.1,13.5-23.3,7.9-33.5-21.1-34-22.4l-5.6,1.9c.3.7,6.4,18.3,20.3,25.1,6.6,3.2,13.7,3.5,21.3.9Z"/>
        </g>
        <g>
          <path class="st3" d="M67.4,254.5c-9.2-12.7-21.6-21.2-34.1-23.3-10.2-1.7-20.1,2.2-26.6,10.3-6.5,8.1-8.1,18.5-4.3,28,11.7,29.1,63.8,23.4,66.1,23.1l-.7-5.9c-.5,0-49.9,5.5-59.9-19.4-3-7.4-1.7-15.7,3.4-22.1,5.2-6.4,13-9.5,21.1-8.2,21.8,3.6,44.4,29.3,46,71.7-2.3.7-6.9,1.7-14.1,2v-10.9h-5.9v10.9c-2.7,0-5.6-.2-8.8-.5v-11.3h-5.9v10.6c-2.9-.4-5.9-.8-9.2-1.4v-11.5h-5.9v16.4l2.4.5c11.9,2.3,21.5,3.1,29.1,3.1,15.2,0,22.2-3.1,22.6-3.3l1.8-.8v-1.9c-.5-22.1-6.3-41.6-16.9-56.3Z"/>
          <path class="st3" d="M115.5,248.6h0c-3.6-9.1-9.4-15-17.1-17.7-15.8-5.5-34,4.7-34.8,5.1l2.9,5.1c.2,0,16.7-9.3,29.9-4.7,6,2.1,10.5,6.8,13.5,14.1,7.9,23.3-21.1,33.5-22.4,34l1.9,5.6c.7-.3,18.3-6.4,25.1-20.3,3.2-6.6,3.5-13.7.9-21.3Z"/>
        </g>
        <g>
          <path class="st3" d="M304.3,255.3c-9.2-12.7-21.6-21.2-34.1-23.3-10.2-1.7-20.1,2.2-26.6,10.3-6.5,8.1-8.1,18.5-4.3,28,11.7,29.1,63.8,23.4,66.1,23.1l-.7-5.9c-.5,0-49.9,5.5-59.9-19.4-3-7.4-1.7-15.7,3.4-22.1,5.2-6.4,13-9.5,21.1-8.2,21.8,3.6,44.4,29.3,46,71.7-2.3.7-6.9,1.7-14.1,2v-10.9h-5.9v10.9c-2.7,0-5.6-.2-8.8-.5v-11.3h-5.9v10.6c-2.9-.4-5.9-.8-9.2-1.4v-11.5h-5.9v16.4l2.4.5c11.9,2.3,21.5,3.1,29.1,3.1,15.2,0,22.2-3.1,22.6-3.3l1.8-.8v-1.9c-.5-22.1-6.3-41.6-16.9-56.3Z"/>
          <path class="st3" d="M352.4,249.4h0c-3.6-9.1-9.4-15-17.1-17.7-15.8-5.5-34,4.7-34.8,5.1l2.9,5.1c.2,0,16.7-9.3,29.9-4.7,6,2.1,10.5,6.8,13.5,14.1,7.9,23.3-21.1,33.5-22.4,34l1.9,5.6c.7-.3,18.3-6.4,25.1-20.3,3.2-6.6,3.5-13.7.9-21.3Z"/>
        </g>
        <g>
          <path class="st3" d="M188.6,279.9c12.7-9.2,21.2-21.6,23.3-34.1,1.7-10.2-2.2-20.1-10.3-26.6-8.1-6.5-18.5-8.1-28-4.3-29.1,11.7-23.4,63.8-23.1,66.1l5.9-.7c0-.5-5.5-49.9,19.4-59.9,7.4-3,15.7-1.7,22.1,3.4,6.4,5.2,9.5,13,8.2,21.1-3.6,21.8-29.3,44.4-71.7,46-.7-2.3-1.7-6.9-2-14.1h10.9v-5.9h-10.9c0-2.7.2-5.6.5-8.8h11.3v-5.9h-10.6c.4-2.9.8-5.9,1.4-9.2h11.5v-5.9h-16.4l-.5,2.4c-2.3,11.9-3.1,21.5-3.1,29.1,0,15.2,3.1,22.2,3.3,22.6l.8,1.8h1.9c22.1-.5,41.6-6.3,56.3-16.9Z"/>
          <path class="st3" d="M194.5,328h.1c9-3.7,14.9-9.4,17.6-17.1,5.5-15.8-4.7-34-5.1-34.8l-5.1,2.9c0,.2,9.3,16.7,4.7,29.9-2.1,6-6.8,10.5-14.1,13.5-23.3,7.9-33.5-21.1-34-22.4l-5.6,1.9c.3.7,6.4,18.3,20.3,25.1,6.6,3.2,13.7,3.5,21.3.9Z"/>
        </g>
        <g>
          <path class="st3" d="M395.6,296.4c-12.7-9.2-21.2-21.6-23.3-34.1-1.7-10.2,2.2-20.1,10.3-26.6,8.1-6.5,18.5-8.1,28-4.3,29.1,11.7,23.4,63.8,23.1,66.1l-5.9-.7c0-.5,5.5-49.9-19.4-59.9-7.4-3-15.7-1.7-22.1,3.4-6.4,5.2-9.5,13-8.2,21.1,3.6,21.8,29.3,44.4,71.7,46,.7-2.3,1.7-6.9,2-14.1h-10.9v-5.9h10.9c0-2.7-.2-5.6-.5-8.8h-11.3v-5.9h10.6c-.4-2.9-.8-5.9-1.4-9.2h-11.5v-5.9h16.4l.5,2.4c2.3,11.9,3.1,21.5,3.1,29.1,0,15.2-3.1,22.2-3.3,22.6l-.8,1.8h-1.9c-22.1-.5-41.6-6.3-56.3-16.9Z"/>
          <path class="st3" d="M389.8,344.5h-.1c-9-3.7-14.9-9.4-17.6-17.1-5.5-15.8,4.7-34,5.1-34.8l5.1,2.9c0,.2-9.3,16.7-4.7,29.9,2.1,6,6.8,10.5,14.1,13.5,23.3,7.9,33.5-21.1,34-22.4l5.6,1.9c-.3.7-6.4,18.3-20.3,25.1-6.6,3.2-13.7,3.5-21.3.9Z"/>
        </g>
        <g>
          <path class="st3" d="M387.5,384.1c9.2-12.7,21.6-21.2,34.1-23.3,10.2-1.7,20.1,2.2,26.6,10.3,6.5,8.1,8.1,18.5,4.3,28-11.7,29.1-63.8,23.4-66.1,23.1l.7-5.9c.5,0,49.9,5.5,59.9-19.4,3-7.4,1.7-15.7-3.4-22.1-5.2-6.4-13-9.5-21.1-8.2-21.8,3.6-44.4,29.3-46,71.7,2.3.7,6.9,1.7,14.1,2v-10.9h5.9v10.9c2.7,0,5.6-.2,8.8-.5v-11.3h5.9v10.6c2.9-.4,5.9-.8,9.2-1.4v-11.5h5.9v16.4l-2.4.5c-11.9,2.3-21.5,3.1-29.1,3.1-15.2,0-22.2-3.1-22.6-3.3l-1.8-.8v-1.9c.5-22.1,6.3-41.6,16.9-56.3Z"/>
          <path class="st3" d="M339.4,378.2h0c3.6-9.1,9.4-15,17.1-17.7,15.8-5.5,34,4.7,34.8,5.1l-2.9,5.1c-.2,0-16.7-9.3-29.9-4.7-6,2.1-10.5,6.8-13.5,14.1-7.9,23.3,21.1,33.5,22.4,34l-1.9,5.6c-.7-.3-18.3-6.4-25.1-20.3-3.2-6.6-3.5-13.7-.9-21.3Z"/>
        </g>
        <g>
          <path class="st3" d="M153.6,367.7c9.2-12.7,21.6-21.2,34.1-23.3,10.2-1.7,20.1,2.2,26.6,10.3,6.5,8.1,8.1,18.5,4.3,28-11.7,29.1-63.8,23.4-66.1,23.1l.7-5.9c.5,0,49.9,5.5,59.9-19.4,3-7.4,1.7-15.7-3.4-22.1-5.2-6.4-13-9.5-21.1-8.2-21.8,3.6-44.4,29.3-46,71.7,2.3.7,6.9,1.7,14.1,2v-10.9h5.9v10.9c2.7,0,5.6-.2,8.8-.5v-11.3h5.9v10.6c2.9-.4,5.9-.8,9.2-1.4v-11.5h5.9v16.4l-2.4.5c-11.9,2.3-21.5,3.1-29.1,3.1-15.2,0-22.2-3.1-22.6-3.3l-1.8-.8v-1.9c.5-22.1,6.3-41.6,16.9-56.3Z"/>
          <path class="st3" d="M105.5,361.8h0c3.6-9.1,9.4-15,17.1-17.7,15.8-5.5,34,4.7,34.8,5.1l-2.9,5.1c-.2,0-16.7-9.3-29.9-4.7-6,2.1-10.5,6.8-13.5,14.1-7.9,23.3,21.1,33.5,22.4,34l-1.9,5.6c-.7-.3-18.3-6.4-25.1-20.3-3.2-6.6-3.5-13.7-.9-21.3Z"/>
        </g>
        <g>
          <path class="st3" d="M262.9,405.3c-12.7-9.2-21.2-21.6-23.3-34.1-1.7-10.2,2.2-20.1,10.3-26.6,8.1-6.5,18.5-8.1,28-4.3,29.1,11.7,23.4,63.8,23.1,66.1l-5.9-.7c0-.5,5.5-49.9-19.4-59.9-7.4-3-15.7-1.7-22.1,3.4-6.4,5.2-9.5,13-8.2,21.1,3.6,21.8,29.3,44.4,71.7,46,.7-2.3,1.7-6.9,2-14.1h-10.9v-5.9h10.9c0-2.7-.2-5.6-.5-8.8h-11.3v-5.9h10.6c-.4-2.9-.8-5.9-1.4-9.2h-11.5v-5.9h16.4l.5,2.4c2.3,11.9,3.1,21.5,3.1,29.1,0,15.2-3.1,22.2-3.3,22.6l-.8,1.8h-1.9c-22.1-.5-41.6-6.3-56.3-16.9Z"/>
          <path class="st3" d="M257.1,453.4h-.1c-9-3.7-14.9-9.4-17.6-17.1-5.5-15.8,4.7-34,5.1-34.8l5.1,2.9c0,.2-9.3,16.7-4.7,29.9,2.1,6,6.8,10.5,14.1,13.5,23.3,7.9,33.5-21.1,34-22.4l5.6,1.9c-.3.7-6.4,18.3-20.3,25.1-6.6,3.2-13.7,3.5-21.3.9Z"/>
        </g>
        <g>
          <path class="st3" d="M62.3,408.8c12.7-9.2,21.2-21.6,23.3-34.1,1.7-10.2-2.2-20.1-10.3-26.6-8.1-6.5-18.5-8.1-28-4.3-29.1,11.7-23.4,63.8-23.1,66.1l5.9-.7c0-.5-5.5-49.9,19.4-59.9,7.4-3,15.7-1.7,22.1,3.4,6.4,5.2,9.5,13,8.2,21.1-3.6,21.8-29.3,44.4-71.7,46-.7-2.3-1.7-6.9-2-14.1h10.9v-5.9H6c0-2.7.2-5.6.5-8.8h11.3v-5.9H7c.4-2.9.8-5.9,1.4-9.2h11.5v-5.9H3.5l-.5,2.4c-2.3,11.9-3.1,21.5-3.1,29.1,0,15.2,3.1,22.2,3.3,22.6l.8,1.8h1.9c22.1-.5,41.6-6.3,56.3-16.9Z"/>
          <path class="st3" d="M68.2,456.9h.1c9-3.7,14.9-9.4,17.6-17.1,5.5-15.8-4.7-34-5.1-34.8l-5.1,2.9c0,.2,9.3,16.7,4.7,29.9-2.1,6-6.8,10.5-14.1,13.5-23.3,7.9-33.5-21.1-34-22.4l-5.6,1.9c.3.7,6.4,18.3,20.3,25.1,6.6,3.2,13.7,3.5,21.3.9Z"/>
        </g>
        <path class="st3" d="M354.1,104.9h0c-1.1,7.1-4.3,12.2-9.3,15.3-10.3,6.4-24.9,2.1-25.5,1.9l1.3-4.1c.1,0,13.3,3.9,22-1.5,3.9-2.5,6.4-6.5,7.3-12.2,1.9-17.8-20.4-20.4-21.3-20.5l.5-4.3c.6,0,14,1.6,21.1,10.4,3.3,4.1,4.7,9.2,4.1,14.9Z"/>
        <path class="st3" d="M459.2,216.1h0c-1.1,7.1-4.3,12.2-9.3,15.3-10.3,6.4-24.9,2.1-25.5,1.9l1.3-4.1c.1,0,13.3,3.9,22-1.5,3.9-2.5,6.4-6.5,7.3-12.2,1.9-17.8-20.4-20.4-21.3-20.5l.5-4.3c.6,0,14,1.6,21.1,10.4,3.3,4.1,4.7,9.2,4.1,14.9Z"/>
        <path class="st3" d="M254.6,322.6h0c-1.1,7.1-4.3,12.2-9.3,15.3-10.3,6.4-24.9,2.1-25.5,1.9l1.3-4.1c.1,0,13.3,3.9,22-1.5,3.9-2.5,6.4-6.5,7.3-12.2,1.9-17.8-20.4-20.4-21.3-20.5l.5-4.3c.6,0,14,1.6,21.1,10.4,3.3,4.1,4.7,9.2,4.1,14.9Z"/>
        <path class="st3" d="M130.5,433.3h0c-1.1,7.1-4.3,12.2-9.3,15.3-10.3,6.4-24.9,2.1-25.5,1.9l1.3-4.1c.1,0,13.3,3.9,22-1.5,3.9-2.5,6.4-6.5,7.3-12.2,1.9-17.8-20.4-20.4-21.3-20.5l.5-4.3c.6,0,14,1.6,21.1,10.4,3.3,4.1,4.7,9.2,4.1,14.9Z"/>
        <path class="st3" d="M366.3,334.2v.2c-1.6,9.5-5.9,16.6-12.8,20.9-14.2,8.9-34.2,2.9-35,2.7l1.7-5.7c.2,0,18.3,5.4,30.2-2,5.4-3.4,8.8-9,10-16.7,2.6-24.4-28-28.1-29.3-28.2l.6-5.9c.8,0,19.2,2.2,29,14.3,4.6,5.7,6.5,12.6,5.6,20.5Z"/>
        <path class="st3" d="M333.9,189.9h0c4.8-3.5,9.7-4.7,14.5-3.5,9.9,2.3,16,13.5,16.2,13.9l-3.2,1.7c0-.1-5.6-10.2-13.9-12.1-3.8-.9-7.7,0-11.5,2.9-11.6,9.4,0,24.1.5,24.8l-2.8,2.3c-.3-.4-7.3-9.2-6.3-18.6.5-4.4,2.6-8.2,6.4-11.3Z"/>
        <path class="st3" d="M324.7,423.7h0c4.8-3.5,9.7-4.7,14.5-3.5,9.9,2.3,16,13.5,16.2,13.9l-3.2,1.7c0-.1-5.6-10.2-13.9-12.1-3.8-.9-7.7,0-11.5,2.9-11.6,9.4,0,24.1.5,24.8l-2.8,2.3c-.3-.4-7.3-9.2-6.3-18.6.5-4.4,2.6-8.2,6.4-11.3Z"/>
        <path class="st3" d="M103.6,312.8h0c4.8-3.5,9.7-4.7,14.5-3.5,9.9,2.3,16,13.5,16.2,13.9l-3.2,1.7c0-.1-5.6-10.2-13.9-12.1-3.8-.9-7.7,0-11.5,2.9-11.6,9.4,0,24.1.5,24.8l-2.8,2.3c-.3-.4-7.3-9.2-6.3-18.6.5-4.4,2.6-8.2,6.4-11.3Z"/>
        <path class="st3" d="M105.1,199.9h0c4.8-3.5,9.7-4.7,14.5-3.5,9.9,2.3,16,13.5,16.2,13.9l-3.2,1.7c0-.1-5.6-10.2-13.9-12.1-3.8-.9-7.7,0-11.5,2.9-11.6,9.4,0,24.1.5,24.8l-2.8,2.3c-.3-.4-7.3-9.2-6.3-18.6.5-4.4,2.6-8.2,6.4-11.3Z"/>
        <path class="st3" d="M14.5,94.2h0c4.8-3.5,9.7-4.7,14.5-3.5,9.9,2.3,16,13.5,16.2,13.9l-3.2,1.7c0-.1-5.6-10.2-13.9-12.1-3.8-.9-7.7,0-11.5,2.9-11.6,9.4,0,24.1.5,24.8l-2.8,2.3c-.3-.4-7.3-9.2-6.3-18.6.5-4.4,2.6-8.2,6.4-11.3Z"/>
        <path class="st3" d="M97.6,82.3h.1c7.1-5.2,14.4-7,21.6-5.3,14.8,3.4,23.8,20.1,24.2,20.8l-4.7,2.5c0-.2-8.3-15.2-20.7-18.1-5.6-1.3-11.4.1-17.2,4.3-17.4,14,0,36,.7,36.9l-4.2,3.4c-.4-.6-10.9-13.7-9.4-27.8.7-6.6,3.9-12.2,9.6-16.8Z"/>
        <path class="st3" d="M236.4,84.8c-.5,2.9-.9,5.6-1.3,8.2h9.4v5.2h-10c-.2,2.8-.4,5.4-.4,7.8h9.7v5.2h-14.9c0-1.2,0-2.4,0-3.8,0-6.7.7-15.3,2.7-25.8l.4-2.1h14.5v5.3h-10.2Z"/>
        <path class="st3" d="M15.4,319.1c-.5,2.9-.9,5.6-1.3,8.2h9.4v5.2h-10c-.2,2.8-.4,5.4-.4,7.8h9.7v5.2h-14.9c0-1.2,0-2.4,0-3.8,0-6.7.7-15.3,2.7-25.8l.4-2.1h14.5v5.3h-10.2Z"/>
        <path class="st3" d="M225.1,223.2c.1-2.9.1-5.7,0-8.3l-9.3,1.3-.7-5.2,9.9-1.4c-.2-2.9-.4-5.4-.7-7.8l-9.6,1.4-.7-5.2,14.8-2.1c.2,1.2.4,2.4.6,3.7.9,6.7,1.5,15.2.9,26v2.2c-.1,0-14.5,2-14.5,2l-.7-5.2,10.1-1.4Z"/>
        <path class="st3" d="M444.7,351.8c.1-2.9.1-5.7,0-8.3l-9.3,1.3-.7-5.2,9.9-1.4c-.2-2.9-.4-5.4-.7-7.8l-9.6,1.4-.7-5.2,14.8-2.1c.2,1.2.4,2.4.6,3.7.9,6.7,1.5,15.2.9,26v2.2c-.1,0-14.5,2-14.5,2l-.7-5.2,10.1-1.4Z"/>
        <path class="st3" d="M213.6,425.9c-1.2,2.7-2.3,5.2-3.2,7.6l9.1,2.3-1.3,5.1-9.7-2.5c-.9,2.7-1.7,5.2-2.3,7.5l9.4,2.4-1.3,5.1-14.4-3.7c.2-1.2.5-2.4.9-3.7,1.7-6.5,4.4-14.6,9-24.4l.9-2,14.1,3.6-1.3,5.1-9.9-2.5Z"/>
      </g>
    </pattern>
    <pattern id="New_Pattern1" data-name="New Pattern" patternTransform="translate(3659.2 3955.1) scale(1.7)" xlink:href="#New_Pattern"/>
  </defs>
  <rect class="st2" width="2000" height="2000"/>
  <rect class="st4" width="2000" height="2000"/>
  <rect class="st1" x="-2182" width="2000" height="2000"/>
</svg>