<?xml version="1.0" encoding="UTF-8"?>
<svg id="Layer_1" data-name="Layer 1" xmlns="http://www.w3.org/2000/svg" viewBox="0 0 2361.86 384.35">
  <defs>
    <style>
      .cls-1 {
        fill: #f6cc6f;
      }

      .cls-2 {
        fill: #fff;
      }
    </style>
  </defs>
  <g>
    <path class="cls-1" d="M294.48,110.59C254.27,54.7,199.65,17.45,144.62,8.4,100,1.06,56.25,18.01,27.6,53.75-.78,89.17-7.76,135.08,8.93,176.57c51.34,127.64,280.33,102.58,290.05,101.44l-3-25.83c-2.18.26-218.97,23.96-262.93-85.31-13.14-32.66-7.59-68.86,14.84-96.85,22.69-28.31,57.26-41.75,92.5-35.96,95.83,15.76,194.85,128.74,201.9,314.85-10.16,2.98-30.34,7.55-61.7,8.94v-47.72h-26.01v48.08c-11.75-.17-24.64-.78-38.73-1.98v-49.42h-26.01v46.66c-12.65-1.59-26.1-3.63-40.4-6.21v-50.42h-26.01v71.94l10.53,2.04c52.25,10.11,94.58,13.52,127.91,13.52,66.63,0,97.28-13.62,99.14-14.48l7.73-3.57-.18-8.51c-2.03-97.15-27.66-182.63-74.1-247.19Z"/>
    <path class="cls-1" d="M505.67,84.91l-.24-.64c-15.85-39.38-41.08-65.33-74.99-77.14-69.41-24.16-149.31,20.63-152.68,22.55l12.87,22.6c.73-.41,73.18-40.89,131.35-20.56,26.38,9.22,46.29,30.05,59.2,61.94,34.73,102.18-92.81,147.29-98.25,149.16l8.39,24.62c3.26-1.11,80.2-27.93,110.21-89.11,14.13-28.8,15.52-60.24,4.14-93.43Z"/>
  </g>
  <g>
    <g>
      <path class="cls-2" d="M653.82,171.84c1.08,2.57,2.14,5.16,3.18,7.76,1.04-2.68,2.12-5.32,3.24-7.93,1.12-2.6,2.31-5.1,3.57-7.49l47.82-89.49c.59-1.12,1.21-2.01,1.84-2.68.63-.67,1.34-1.15,2.12-1.45.78-.3,1.66-.48,2.63-.56.97-.07,2.12-.11,3.46-.11h22.68v161.56h-26.48v-104.35c0-1.94.06-4.06.17-6.37.11-2.31.28-4.65.5-7.04l-48.83,91.62c-1.12,2.09-2.57,3.71-4.36,4.86-1.79,1.15-3.87,1.73-6.26,1.73h-4.13c-2.39,0-4.47-.58-6.26-1.73-1.79-1.15-3.24-2.78-4.36-4.86l-49.49-91.95c.3,2.46.5,4.86.61,7.2.11,2.35.17,4.53.17,6.54v104.35h-26.48V69.89h22.68c1.34,0,2.49.04,3.46.11.97.08,1.84.26,2.63.56.78.3,1.51.78,2.18,1.45.67.67,1.3,1.57,1.9,2.68l48.26,89.72c1.27,2.38,2.44,4.86,3.52,7.43Z"/>
      <path class="cls-2" d="M922.36,231.45h-23.24c-2.61,0-4.75-.65-6.42-1.95-1.68-1.3-2.89-2.92-3.63-4.86l-12.06-32.96h-66.93l-12.07,32.96c-.59,1.71-1.77,3.28-3.52,4.7-1.75,1.41-3.89,2.12-6.42,2.12h-23.35l63.46-161.56h30.72l63.46,161.56ZM817.78,170.44h51.51l-19.66-53.74c-.89-2.38-1.88-5.19-2.96-8.43-1.08-3.24-2.14-6.76-3.18-10.56-1.05,3.8-2.07,7.34-3.07,10.62-1.01,3.27-2,6.14-2.96,8.6l-19.66,53.52Z"/>
      <path class="cls-2" d="M1028.95,99.27c-.82,1.64-1.77,2.8-2.85,3.47-1.08.67-2.36,1.01-3.85,1.01s-3.17-.58-5.03-1.73c-1.86-1.15-4.06-2.44-6.59-3.85-2.53-1.42-5.49-2.7-8.88-3.86-3.39-1.15-7.4-1.73-12.01-1.73-4.17,0-7.81.5-10.89,1.51-3.09,1.01-5.7,2.4-7.82,4.19-2.12,1.79-3.71,3.93-4.75,6.42-1.04,2.5-1.56,5.23-1.56,8.21,0,3.8,1.06,6.97,3.18,9.5,2.12,2.54,4.93,4.7,8.43,6.48,3.5,1.79,7.49,3.39,11.95,4.81,4.47,1.41,9.03,2.92,13.69,4.52,4.66,1.6,9.22,3.46,13.69,5.59,4.47,2.12,8.45,4.81,11.95,8.04,3.5,3.24,6.31,7.21,8.43,11.9,2.12,4.69,3.18,10.39,3.18,17.09,0,7.3-1.25,14.14-3.74,20.5-2.49,6.37-6.14,11.92-10.95,16.65-4.81,4.73-10.67,8.45-17.6,11.17-6.93,2.72-14.86,4.07-23.8,4.07-5.14,0-10.21-.5-15.2-1.51-4.99-1.01-9.78-2.44-14.36-4.3-4.58-1.86-8.87-4.1-12.85-6.71-3.98-2.6-7.54-5.51-10.67-8.71l8.72-14.41c.82-1.04,1.81-1.92,2.96-2.62s2.44-1.06,3.85-1.06c1.86,0,3.87.77,6.04,2.29,2.16,1.53,4.71,3.23,7.65,5.08,2.94,1.86,6.41,3.56,10.39,5.08,3.98,1.53,8.77,2.29,14.36,2.29,8.56,0,15.2-2.03,19.89-6.09,4.69-4.06,7.04-9.89,7.04-17.49,0-4.25-1.06-7.71-3.18-10.39-2.12-2.68-4.94-4.93-8.43-6.76-3.5-1.82-7.49-3.37-11.95-4.63-4.47-1.27-9.01-2.64-13.63-4.14-4.62-1.49-9.16-3.27-13.63-5.36-4.47-2.09-8.46-4.81-11.96-8.16-3.5-3.35-6.31-7.54-8.43-12.57-2.12-5.03-3.18-11.23-3.18-18.6,0-5.88,1.17-11.62,3.52-17.2,2.35-5.59,5.77-10.54,10.28-14.86,4.51-4.32,10.04-7.78,16.59-10.39,6.55-2.6,14.04-3.91,22.46-3.91,9.53,0,18.32,1.49,26.37,4.47,8.04,2.98,14.9,7.15,20.56,12.51l-7.37,14.19Z"/>
      <path class="cls-2" d="M1179.44,69.89v24.69h-48.6v136.87h-30.05V94.58h-48.83v-24.69h127.48Z"/>
      <path class="cls-2" d="M1303.79,69.89v23.91h-71.62v44.81h56.42v23.13h-56.42v45.7h71.62v24.02h-101.9V69.89h101.9Z"/>
      <path class="cls-2" d="M1364.24,168.32v63.13h-30.05V69.89h49.27c11.02,0,20.46,1.13,28.32,3.41,7.86,2.27,14.3,5.46,19.33,9.55,5.03,4.1,8.71,8.99,11.06,14.69,2.35,5.7,3.52,11.98,3.52,18.83,0,5.44-.8,10.58-2.4,15.42-1.6,4.84-3.91,9.23-6.93,13.18-3.02,3.95-6.74,7.41-11.17,10.39-4.43,2.98-9.48,5.36-15.14,7.15,3.8,2.16,7.08,5.25,9.83,9.28l40.45,59.66h-27.04c-2.61,0-4.82-.52-6.65-1.57-1.82-1.04-3.37-2.53-4.63-4.47l-33.97-51.73c-1.26-1.93-2.66-3.31-4.19-4.13-1.53-.82-3.78-1.23-6.76-1.23h-12.85ZM1364.24,146.76h18.77c5.66,0,10.59-.7,14.81-2.12,4.21-1.41,7.67-3.37,10.39-5.86,2.72-2.49,4.75-5.46,6.09-8.88,1.34-3.42,2.01-7.19,2.01-11.28,0-8.2-2.7-14.49-8.1-18.88-5.4-4.39-13.65-6.59-24.74-6.59h-19.22v53.63Z"/>
      <path class="cls-2" d="M1594.4,174.02c0,9.09-1.12,17.28-3.35,24.58-2.24,7.3-5.57,13.52-10,18.66-4.43,5.14-9.96,9.09-16.59,11.84-6.63,2.75-14.34,4.13-23.13,4.13-4.02,0-7.97-.24-11.84-.72-3.87-.49-7.93-1.25-12.18-2.29l1.57-17.88c.15-1.64.76-2.96,1.84-3.97,1.08-1.01,2.66-1.51,4.75-1.51,1.26,0,2.92.26,4.97.78,2.05.52,4.64.78,7.76.78,4.25,0,8.01-.61,11.29-1.84,3.27-1.23,6.01-3.18,8.21-5.86,2.2-2.68,3.85-6.17,4.97-10.45,1.12-4.28,1.68-9.48,1.68-15.59v-104.8h30.05v104.13Z"/>
      <path class="cls-2" d="M1766.57,231.45h-23.24c-2.61,0-4.75-.65-6.42-1.95s-2.89-2.92-3.63-4.86l-12.06-32.96h-66.93l-12.07,32.96c-.59,1.71-1.77,3.28-3.52,4.7-1.75,1.41-3.89,2.12-6.42,2.12h-23.35l63.46-161.56h30.72l63.46,161.56ZM1661.99,170.44h51.51l-19.66-53.74c-.89-2.38-1.88-5.19-2.96-8.43-1.08-3.24-2.14-6.76-3.18-10.56-1.05,3.8-2.07,7.34-3.07,10.62-1.01,3.27-2,6.14-2.96,8.6l-19.66,53.52Z"/>
      <path class="cls-2" d="M1891.93,193.35c1.64,0,3.05.64,4.25,1.9l11.84,12.85c-6.55,8.12-14.62,14.34-24.19,18.66-9.57,4.32-21.06,6.48-34.47,6.48-12,0-22.78-2.04-32.35-6.14-9.57-4.1-17.75-9.79-24.52-17.09-6.78-7.3-11.97-16.01-15.59-26.15-3.61-10.13-5.42-21.19-5.42-33.18s2.01-23.26,6.03-33.35c4.03-10.09,9.68-18.79,16.98-26.09,7.3-7.3,16.03-12.98,26.2-17.04,10.17-4.06,21.4-6.09,33.69-6.09s22.48,1.92,31.45,5.75c8.98,3.84,16.67,8.92,23.07,15.25l-10.06,13.97c-.59.89-1.36,1.68-2.29,2.35-.93.67-2.22,1.01-3.85,1.01s-3.47-.67-5.25-2.01c-1.79-1.34-4.06-2.8-6.82-4.36-2.76-1.56-6.24-3.02-10.45-4.36-4.21-1.34-9.55-2.01-16.03-2.01-7.6,0-14.58,1.33-20.95,3.97-6.37,2.64-11.84,6.42-16.42,11.34-4.58,4.92-8.15,10.89-10.72,17.93-2.57,7.04-3.85,14.95-3.85,23.74s1.28,17.17,3.85,24.25c2.57,7.08,6.05,13.04,10.45,17.88,4.39,4.84,9.57,8.55,15.53,11.12,5.96,2.57,12.36,3.85,19.22,3.85,4.09,0,7.8-.22,11.12-.67,3.31-.45,6.37-1.15,9.16-2.12,2.79-.97,5.43-2.21,7.93-3.74,2.49-1.53,4.97-3.41,7.43-5.64.74-.67,1.53-1.21,2.35-1.62.82-.41,1.71-.61,2.68-.61Z"/>
      <path class="cls-2" d="M2089.02,150.67c0,11.84-1.98,22.81-5.92,32.91-3.95,10.1-9.5,18.83-16.65,26.2-7.15,7.38-15.75,13.13-25.81,17.26-10.06,4.14-21.19,6.2-33.41,6.2s-23.37-2.06-33.46-6.2c-10.1-4.13-18.74-9.89-25.92-17.26-7.19-7.37-12.76-16.1-16.7-26.2-3.95-10.09-5.92-21.06-5.92-32.91s1.97-22.81,5.92-32.9c3.95-10.09,9.51-18.83,16.7-26.2,7.19-7.38,15.83-13.13,25.92-17.26,10.09-4.14,21.25-6.2,33.46-6.2s23.35,2.09,33.41,6.26c10.05,4.17,18.66,9.93,25.81,17.26,7.15,7.34,12.7,16.05,16.65,26.15,3.95,10.09,5.92,21.06,5.92,32.9ZM2058.18,150.67c0-8.86-1.17-16.81-3.52-23.85-2.35-7.04-5.72-13.02-10.11-17.93-4.4-4.92-9.74-8.67-16.04-11.28-6.29-2.61-13.39-3.91-21.28-3.91s-15.01,1.3-21.34,3.91c-6.33,2.61-11.71,6.37-16.14,11.28-4.43,4.92-7.84,10.89-10.22,17.93-2.38,7.04-3.58,14.99-3.58,23.85s1.19,16.82,3.58,23.85c2.38,7.04,5.79,13,10.22,17.88,4.43,4.88,9.81,8.62,16.14,11.23,6.33,2.61,13.45,3.91,21.34,3.91s14.99-1.3,21.28-3.91c6.29-2.6,11.64-6.35,16.04-11.23,4.39-4.88,7.76-10.84,10.11-17.88,2.35-7.04,3.52-14.99,3.52-23.85Z"/>
      <path class="cls-2" d="M2116.06,231.45V69.89h55.75c10.58,0,19.61,1.01,27.09,3.02,7.49,2.01,13.63,4.88,18.43,8.6,4.81,3.72,8.32,8.23,10.56,13.52,2.24,5.29,3.35,11.25,3.35,17.88,0,3.8-.56,7.43-1.68,10.89-1.12,3.47-2.85,6.7-5.19,9.72-2.35,3.02-5.33,5.75-8.94,8.21-3.61,2.46-7.91,4.54-12.9,6.26,22.19,4.99,33.29,16.98,33.29,35.98,0,6.85-1.31,13.18-3.91,18.99-2.61,5.81-6.41,10.82-11.4,15.03-4.99,4.21-11.13,7.5-18.43,9.89-7.3,2.38-15.64,3.58-25.03,3.58h-61ZM2146.11,139.83h24.02c10.21,0,17.95-1.86,23.24-5.59,5.29-3.72,7.93-9.64,7.93-17.76s-2.38-14.41-7.15-17.99c-4.77-3.58-12.22-5.37-22.35-5.37h-25.7v46.7ZM2146.11,160.61v47.37h30.5c5.59,0,10.26-.67,14.02-2.01,3.76-1.34,6.78-3.13,9.05-5.37,2.27-2.24,3.91-4.84,4.92-7.82,1.01-2.98,1.51-6.14,1.51-9.49s-.56-6.65-1.68-9.44c-1.12-2.79-2.87-5.18-5.25-7.15s-5.44-3.48-9.16-4.53c-3.73-1.04-8.23-1.56-13.52-1.56h-30.39Z"/>
      <path class="cls-2" d="M2351.58,99.27c-.82,1.64-1.77,2.8-2.85,3.47-1.08.67-2.36,1.01-3.85,1.01s-3.17-.58-5.03-1.73c-1.86-1.15-4.06-2.44-6.59-3.85-2.53-1.42-5.49-2.7-8.88-3.86-3.39-1.15-7.4-1.73-12.01-1.73-4.17,0-7.81.5-10.89,1.51-3.09,1.01-5.7,2.4-7.82,4.19-2.12,1.79-3.71,3.93-4.75,6.42-1.04,2.5-1.56,5.23-1.56,8.21,0,3.8,1.06,6.97,3.18,9.5,2.12,2.54,4.93,4.7,8.43,6.48,3.5,1.79,7.49,3.39,11.95,4.81,4.47,1.41,9.03,2.92,13.69,4.52,4.66,1.6,9.22,3.46,13.69,5.59,4.47,2.12,8.45,4.81,11.95,8.04,3.5,3.24,6.31,7.21,8.43,11.9,2.12,4.69,3.18,10.39,3.18,17.09,0,7.3-1.25,14.14-3.74,20.5-2.49,6.37-6.14,11.92-10.95,16.65-4.81,4.73-10.67,8.45-17.6,11.17-6.93,2.72-14.86,4.07-23.8,4.07-5.14,0-10.21-.5-15.2-1.51-4.99-1.01-9.78-2.44-14.36-4.3-4.58-1.86-8.87-4.1-12.85-6.71-3.98-2.6-7.54-5.51-10.67-8.71l8.72-14.41c.82-1.04,1.81-1.92,2.96-2.62s2.44-1.06,3.85-1.06c1.86,0,3.87.77,6.04,2.29,2.16,1.53,4.71,3.23,7.65,5.08,2.94,1.86,6.41,3.56,10.39,5.08,3.98,1.53,8.77,2.29,14.36,2.29,8.56,0,15.2-2.03,19.89-6.09,4.69-4.06,7.04-9.89,7.04-17.49,0-4.25-1.06-7.71-3.18-10.39-2.12-2.68-4.94-4.93-8.43-6.76-3.5-1.82-7.49-3.37-11.95-4.63-4.47-1.27-9.01-2.64-13.63-4.14-4.62-1.49-9.16-3.27-13.63-5.36-4.47-2.09-8.46-4.81-11.96-8.16-3.5-3.35-6.31-7.54-8.43-12.57-2.12-5.03-3.18-11.23-3.18-18.6,0-5.88,1.17-11.62,3.52-17.2,2.35-5.59,5.77-10.54,10.28-14.86,4.51-4.32,10.04-7.78,16.59-10.39,6.55-2.6,14.04-3.91,22.46-3.91,9.53,0,18.32,1.49,26.37,4.47,8.04,2.98,14.9,7.15,20.56,12.51l-7.37,14.19Z"/>
    </g>
    <g>
      <path class="cls-2" d="M571.75,296.97h29.32c8.01,0,14.51,2.33,18.46,6.29,2.94,2.94,4.57,6.7,4.57,11.16v.2c0,9.64-6.29,14.51-12.07,16.84,8.52,2.23,16.03,7.1,16.03,16.94v.21c0,11.87-10.14,19.38-25.46,19.38h-30.84v-71.01ZM618.71,314.93c0-7.81-6.39-13.09-17.75-13.09h-23.94v27.9h23.44c10.65,0,18.26-5.17,18.26-14.61v-.2ZM601.06,334.61h-24.04v28.51h25.77c12.17,0,19.88-5.58,19.88-14.51v-.21c0-8.72-7.61-13.8-21.61-13.8Z"/>
      <path class="cls-2" d="M672.99,296.46h5.07l33.07,71.52h-5.78l-9.03-19.89h-41.9l-9.03,19.89h-5.48l33.07-71.52ZM694.09,343.33l-18.67-41.09-18.77,41.09h37.43Z"/>
      <path class="cls-2" d="M719.96,332.68v-.2c0-19.17,13.9-36.73,35.1-36.73,11.57,0,18.87,3.45,25.97,9.33l-3.45,3.96c-5.58-4.87-12.08-8.52-22.83-8.52-17.25,0-29.32,14.61-29.32,31.76v.2c0,18.36,11.47,32.06,30.44,32.06,9.03,0,17.45-3.75,22.62-8.12v-20.39h-23.74v-4.87h28.81v27.39c-6.39,5.68-16.33,10.66-27.9,10.66-22.42,0-35.71-16.54-35.71-36.52Z"/>
      <path class="cls-2" d="M803.65,296.97h50.52v4.87h-45.25v27.9h40.68v4.87h-40.68v28.51h45.75v4.87h-51.03v-71.01Z"/>
      <path class="cls-2" d="M872.63,296.97h29.82c8.72,0,15.72,2.74,19.98,7,3.35,3.35,5.38,8.12,5.38,13.19v.2c0,11.87-8.83,18.67-20.8,20.29l23.44,30.34h-6.7l-22.62-29.42h-23.23v29.42h-5.27v-71.01ZM901.85,333.8c11.87,0,20.7-5.99,20.7-16.23v-.21c0-9.54-7.51-15.52-20.39-15.52h-24.25v31.96h23.94Z"/>
      <path class="cls-2" d="M947.7,296.97h5.27v71.01h-5.27v-71.01Z"/>
      <path class="cls-2" d="M1047.52,356.73c-6.69,7.81-14.51,12.27-24.04,12.27-12.48,0-21.81-8.12-21.81-19.68v-.2c0-9.54,6.8-16.54,18.36-20.8-5.38-5.99-7.91-10.35-7.91-16.23v-.2c0-9.13,7.41-16.13,17.75-16.13,9.23,0,16.34,6.9,16.34,15.42v.21c0,8.82-6.6,14.61-17.45,18.36l18.67,19.18c3.45-4.87,6.49-10.75,9.23-17.25l4.77,1.93c-3.25,7.3-6.7,13.69-10.55,18.87l13.09,13.49-4.16,3.45-12.27-12.68ZM1044.17,353.28l-21-21.71c-11.26,3.85-16.23,10.45-16.23,17.35v.2c0,8.62,6.9,15.32,16.64,15.32,7.91,0,14.71-4.26,20.59-11.16ZM1040.93,311.58v-.2c0-6.29-4.87-11.16-11.26-11.16-7.2,0-12.27,5.07-12.27,11.46v.21c0,4.46,1.93,7.91,8.22,14.61,10.14-3.25,15.32-8.22,15.32-14.91Z"/>
      <path class="cls-2" d="M1110.32,296.97h5.27v46.66l45.25-46.66h7.2l-31.04,31.35,32.36,39.67h-6.9l-29.22-35.91-17.65,17.86v18.06h-5.27v-71.01Z"/>
      <path class="cls-2" d="M1175.65,332.68v-.2c0-19.38,14.3-36.73,35.81-36.73s35.61,17.14,35.61,36.52v.2c0,19.38-14.31,36.73-35.81,36.73s-35.61-17.15-35.61-36.52ZM1241.59,332.68v-.2c0-17.55-12.78-31.96-30.33-31.96s-30.13,14.2-30.13,31.76v.2c0,17.55,12.78,31.96,30.34,31.96s30.13-14.2,30.13-31.76Z"/>
      <path class="cls-2" d="M1266.03,296.97h4.97l49,61.78v-61.78h5.07v71.01h-3.96l-50.01-63.1v63.1h-5.07v-71.01Z"/>
      <path class="cls-2" d="M1347.19,296.97h23.64c22.32,0,37.74,15.32,37.74,35.3v.2c0,19.98-15.42,35.51-37.74,35.51h-23.64v-71.01ZM1352.47,301.84v61.28h18.36c19.78,0,32.26-13.49,32.26-30.43v-.2c0-16.84-12.48-30.64-32.26-30.64h-18.36Z"/>
      <path class="cls-2" d="M1428.24,296.97h5.27v71.01h-5.27v-71.01Z"/>
      <path class="cls-2" d="M1476.03,301.84h-24.75v-4.87h54.78v4.87h-24.76v66.15h-5.27v-66.15Z"/>
      <path class="cls-2" d="M1514.37,332.68v-.2c0-19.38,14.3-36.73,35.81-36.73s35.61,17.14,35.61,36.52v.2c0,19.38-14.31,36.73-35.81,36.73s-35.61-17.15-35.61-36.52ZM1580.31,332.68v-.2c0-17.55-12.78-31.96-30.33-31.96s-30.13,14.2-30.13,31.76v.2c0,17.55,12.78,31.96,30.34,31.96s30.13-14.2,30.13-31.76Z"/>
      <path class="cls-2" d="M1604.76,296.97h29.82c8.72,0,15.72,2.74,19.98,7,3.35,3.35,5.38,8.12,5.38,13.19v.2c0,11.87-8.83,18.67-20.8,20.29l23.44,30.34h-6.7l-22.62-29.42h-23.23v29.42h-5.27v-71.01ZM1633.97,333.8c11.87,0,20.7-5.99,20.7-16.23v-.21c0-9.54-7.51-15.52-20.39-15.52h-24.25v31.96h23.94Z"/>
      <path class="cls-2" d="M1679.83,296.97h5.27v71.01h-5.27v-71.01Z"/>
      <path class="cls-2" d="M1734.81,357.64l3.45-3.96c7.81,7.2,15.01,10.55,25.46,10.55s17.96-5.98,17.96-14.1v-.2c0-7.51-3.96-11.87-20.09-15.11-17.05-3.45-23.94-9.23-23.94-19.99v-.2c0-10.55,9.64-18.67,22.83-18.67,10.35,0,17.14,2.84,24.35,8.63l-3.35,4.16c-6.69-5.78-13.39-8.02-21.2-8.02-10.45,0-17.35,5.99-17.35,13.39v.2c0,7.51,3.85,12.07,20.7,15.52,16.44,3.35,23.33,9.23,23.33,19.58v.2c0,11.46-9.84,19.38-23.54,19.38-11.36,0-20.08-3.75-28.61-11.36Z"/>
      <path class="cls-2" d="M1805.32,296.97h50.52v4.87h-45.25v27.9h40.68v4.87h-40.68v28.51h45.75v4.87h-51.03v-71.01Z"/>
      <path class="cls-2" d="M1874.3,296.97h23.64c22.32,0,37.74,15.32,37.74,35.3v.2c0,19.98-15.42,35.51-37.74,35.51h-23.64v-71.01ZM1879.57,301.84v61.28h18.36c19.78,0,32.26-13.49,32.26-30.43v-.2c0-16.84-12.48-30.64-32.26-30.64h-18.36Z"/>
      <path class="cls-2" d="M1977.06,296.46h5.07l33.07,71.52h-5.78l-9.03-19.89h-41.9l-9.03,19.89h-5.48l33.07-71.52ZM1998.16,343.33l-18.67-41.09-18.77,41.09h37.43Z"/>
      <path class="cls-2" d="M2031.24,296.97h4.97l49,61.78v-61.78h5.07v71.01h-3.96l-50.01-63.1v63.1h-5.07v-71.01Z"/>
      <path class="cls-2" d="M2151.45,301.94l-13.7,4.66-1.42-4.16,16.23-5.99h4.06v71.52h-5.17v-66.04Z"/>
      <path class="cls-2" d="M2221.65,330.65v-2.74c-4.77,8.32-11.97,13.59-22.12,13.59-14.3,0-24.55-9.54-24.55-21.71v-.21c0-13.08,10.14-23.84,24.96-23.84,7.61,0,13.8,2.94,18.06,7.2,5.48,5.48,8.93,13.5,8.93,27.7v.21c0,22.32-12.38,38.35-28.91,38.35-8.83,0-15.52-3.86-21.41-8.83l3.35-4.06c5.98,5.38,11.66,8.12,18.16,8.12,14.2,0,23.54-14.92,23.54-33.79ZM2219.52,318.78v-.2c0-10.04-8.42-18.06-20.19-18.06s-18.87,9.03-18.87,18.87v.2c0,9.94,8.01,17.25,19.28,17.25,12.07,0,19.78-9.13,19.78-18.06Z"/>
      <path class="cls-2" d="M2240.01,349.01v-.2c0-8.32,6.8-14.61,15.73-17.55-7-2.84-13.29-8.12-13.29-16.53v-.21c0-11.05,11.66-18.56,23.94-18.56s23.94,7.51,23.94,18.56v.21c0,8.42-6.29,13.69-13.29,16.53,8.93,2.94,15.72,9.23,15.72,17.55v.2c0,11.77-11.46,19.98-26.37,19.98s-26.38-8.21-26.38-19.98ZM2287.28,349.22v-.2c0-8.83-9.33-15.22-20.9-15.22s-20.9,6.39-20.9,15.22v.2c0,8.02,7.81,15.02,20.9,15.02s20.9-7,20.9-15.02ZM2284.85,314.73v-.21c0-8.01-8.12-13.8-18.46-13.8s-18.47,5.78-18.47,13.8v.21c0,8.72,8.42,14.61,18.47,14.61s18.46-5.88,18.46-14.61Z"/>
      <path class="cls-2" d="M2304.22,364.03l26.48-23.94c11.67-10.65,15.72-16.74,15.72-24.25,0-9.23-7.51-15.22-16.03-15.22-9.03,0-14.91,4.66-20.8,13.19l-3.96-2.64c6.19-9.43,12.78-15.22,25.26-15.22s21.1,8.42,21.1,19.48v.2c0,9.74-5.27,16.23-17.75,27.6l-21.71,19.68h40.18v5.07h-48.49v-3.96Z"/>
    </g>
    <circle class="cls-2" cx="824.58" cy="27.41" r="12.47"/>
    <circle class="cls-2" cx="863.91" cy="27.41" r="12.47"/>
  </g>
</svg>