<?xml version="1.0" encoding="UTF-8"?>
<svg id="Layer_1" data-name="Layer 1" xmlns="http://www.w3.org/2000/svg" viewBox="0 0 1737.12 1011.05">
  <defs>
    <style>
      .cls-1 {
        fill: #fff;
      }
    </style>
  </defs>
  <g>
    <g>
      <path class="cls-1" d="M931.38,183.6c-66.75-92.8-157.43-154.64-248.79-169.66-74.08-12.19-146.7,15.96-194.26,75.3-47.12,58.79-58.71,135.02-31.01,203.89,85.23,211.9,465.39,170.29,481.53,168.41l-4.97-42.89c-3.62.43-363.53,39.78-436.5-141.64-21.81-54.22-12.6-114.32,24.64-160.78,37.67-47,95.06-69.32,153.57-59.7,159.09,26.17,323.47,213.72,335.19,522.7-16.87,4.95-50.37,12.53-102.43,14.83v-79.22h-43.18v79.82c-19.5-.28-40.91-1.29-64.3-3.29v-82.05h-43.18v77.47c-21.01-2.64-43.34-6.02-67.06-10.3v-83.7h-43.18v119.44l17.49,3.38c86.74,16.79,157.01,22.44,212.35,22.44,110.62,0,161.5-22.61,164.59-24.03l12.83-5.92-.3-14.13c-3.38-161.28-45.92-303.19-123.02-410.38Z"/>
      <path class="cls-1" d="M1281.99,140.96l-.39-1.06c-26.31-65.37-68.19-108.45-124.5-128.06-115.22-40.12-247.88,34.26-253.47,37.44l21.36,37.52c1.2-.69,121.49-67.88,218.06-34.14,43.79,15.3,76.85,49.89,98.28,102.83,57.66,169.63-154.08,244.53-163.11,247.63l13.93,40.87c5.41-1.84,133.14-46.36,182.96-147.93,23.45-47.82,25.77-100.01,6.88-155.1Z"/>
    </g>
    <g>
      <g>
        <path class="cls-1" d="M329.13,940.86h28.41c7.76,0,14.06,2.26,17.89,6.09,2.85,2.85,4.42,6.49,4.42,10.82v.2c0,9.34-6.1,14.06-11.7,16.32,8.26,2.16,15.53,6.88,15.53,16.42v.2c0,11.5-9.83,18.78-24.68,18.78h-29.88v-68.81ZM374.65,958.26c0-7.57-6.19-12.68-17.2-12.68h-23.2v27.03h22.71c10.32,0,17.69-5.01,17.69-14.16v-.2ZM357.54,977.33h-23.3v27.62h24.97c11.8,0,19.27-5.41,19.27-14.06v-.2c0-8.45-7.37-13.37-20.94-13.37Z"/>
        <path class="cls-1" d="M427.24,940.37h4.92l32.05,69.31h-5.61l-8.75-19.27h-40.6l-8.75,19.27h-5.31l32.05-69.31ZM447.68,985.78l-18.09-39.81-18.18,39.81h36.27Z"/>
        <path class="cls-1" d="M472.75,975.46v-.2c0-18.58,13.47-35.59,34.01-35.59,11.21,0,18.29,3.34,25.17,9.04l-3.34,3.83c-5.41-4.72-11.7-8.26-22.12-8.26-16.71,0-28.41,14.16-28.41,30.77v.2c0,17.79,11.11,31.06,29.49,31.06,8.75,0,16.91-3.63,21.92-7.86v-19.76h-23v-4.72h27.92v26.54c-6.19,5.51-15.83,10.32-27.03,10.32-21.72,0-34.6-16.03-34.6-35.39Z"/>
        <path class="cls-1" d="M553.85,940.86h48.96v4.72h-43.85v27.03h39.42v4.72h-39.42v27.62h44.34v4.72h-49.45v-68.81Z"/>
        <path class="cls-1" d="M620.69,940.86h28.9c8.45,0,15.24,2.65,19.37,6.78,3.24,3.24,5.21,7.86,5.21,12.78v.2c0,11.5-8.55,18.09-20.15,19.66l22.71,29.4h-6.49l-21.92-28.51h-22.51v28.51h-5.11v-68.81ZM649,976.54c11.5,0,20.06-5.8,20.06-15.73v-.2c0-9.24-7.28-15.04-19.76-15.04h-23.49v30.97h23.2Z"/>
        <path class="cls-1" d="M693.44,940.86h5.11v68.81h-5.11v-68.81Z"/>
        <path class="cls-1" d="M790.17,998.76c-6.49,7.57-14.06,11.89-23.3,11.89-12.09,0-21.14-7.86-21.14-19.07v-.2c0-9.24,6.59-16.03,17.79-20.15-5.21-5.8-7.67-10.03-7.67-15.73v-.2c0-8.85,7.18-15.63,17.2-15.63,8.95,0,15.83,6.68,15.83,14.94v.2c0,8.55-6.39,14.16-16.91,17.79l18.09,18.58c3.34-4.72,6.29-10.42,8.95-16.71l4.62,1.87c-3.15,7.08-6.49,13.27-10.23,18.28l12.68,13.07-4.03,3.34-11.89-12.29ZM786.92,995.42l-20.35-21.04c-10.91,3.73-15.73,10.13-15.73,16.81v.2c0,8.35,6.68,14.85,16.12,14.85,7.67,0,14.25-4.13,19.96-10.82ZM783.77,955.02v-.2c0-6.1-4.72-10.82-10.91-10.82-6.98,0-11.89,4.92-11.89,11.11v.2c0,4.32,1.87,7.67,7.96,14.16,9.83-3.15,14.84-7.96,14.84-14.45Z"/>
        <path class="cls-1" d="M851.01,940.86h5.11v45.22l43.85-45.22h6.98l-30.08,30.38,31.36,38.44h-6.68l-28.31-34.8-17.1,17.3v17.5h-5.11v-68.81Z"/>
        <path class="cls-1" d="M914.32,975.46v-.2c0-18.78,13.86-35.59,34.7-35.59s34.51,16.61,34.51,35.39v.2c0,18.78-13.86,35.59-34.7,35.59s-34.51-16.62-34.51-35.39ZM978.22,975.46v-.2c0-17.01-12.39-30.97-29.39-30.97s-29.2,13.76-29.2,30.77v.2c0,17.01,12.39,30.97,29.4,30.97s29.2-13.76,29.2-30.77Z"/>
        <path class="cls-1" d="M1001.91,940.86h4.82l47.48,59.87v-59.87h4.92v68.81h-3.83l-48.46-61.14v61.14h-4.92v-68.81Z"/>
        <path class="cls-1" d="M1080.55,940.86h22.9c21.63,0,36.57,14.84,36.57,34.21v.2c0,19.37-14.94,34.41-36.57,34.41h-22.9v-68.81ZM1085.66,945.58v59.38h17.79c19.17,0,31.26-13.07,31.26-29.49v-.2c0-16.32-12.09-29.69-31.26-29.69h-17.79Z"/>
        <path class="cls-1" d="M1159.09,940.86h5.11v68.81h-5.11v-68.81Z"/>
        <path class="cls-1" d="M1205.39,945.58h-23.99v-4.72h53.09v4.72h-23.99v64.1h-5.11v-64.1Z"/>
        <path class="cls-1" d="M1242.55,975.46v-.2c0-18.78,13.86-35.59,34.7-35.59s34.51,16.61,34.51,35.39v.2c0,18.78-13.86,35.59-34.7,35.59s-34.51-16.62-34.51-35.39ZM1306.45,975.46v-.2c0-17.01-12.39-30.97-29.39-30.97s-29.2,13.76-29.2,30.77v.2c0,17.01,12.39,30.97,29.4,30.97s29.2-13.76,29.2-30.77Z"/>
        <path class="cls-1" d="M1330.14,940.86h28.9c8.45,0,15.24,2.65,19.37,6.78,3.24,3.24,5.21,7.86,5.21,12.78v.2c0,11.5-8.55,18.09-20.15,19.66l22.71,29.4h-6.49l-21.92-28.51h-22.51v28.51h-5.11v-68.81ZM1358.45,976.54c11.5,0,20.06-5.8,20.06-15.73v-.2c0-9.24-7.28-15.04-19.76-15.04h-23.49v30.97h23.2Z"/>
        <path class="cls-1" d="M1402.88,940.86h5.11v68.81h-5.11v-68.81Z"/>
      </g>
      <g>
        <g>
          <path class="cls-1" d="M82.01,819.6c1.04,2.49,2.07,5,3.08,7.52,1.01-2.6,2.06-5.16,3.14-7.69,1.08-2.52,2.24-4.94,3.46-7.25l46.34-86.72c.58-1.08,1.17-1.95,1.79-2.6s1.3-1.12,2.06-1.41c.76-.29,1.61-.47,2.55-.54.94-.07,2.06-.11,3.35-.11h21.98v156.55h-25.66v-101.12c0-1.88.06-3.93.16-6.17.11-2.24.27-4.51.49-6.82l-47.31,88.78c-1.08,2.02-2.49,3.59-4.22,4.71-1.73,1.12-3.75,1.68-6.06,1.68h-4c-2.31,0-4.33-.56-6.06-1.68-1.73-1.12-3.14-2.69-4.23-4.71l-47.96-89.1c.29,2.38.49,4.71.59,6.98.11,2.27.16,4.39.16,6.34v101.12H0v-156.55h21.98c1.3,0,2.42.04,3.35.11.94.07,1.79.25,2.55.54.76.29,1.46.76,2.11,1.41s1.26,1.52,1.84,2.6l46.77,86.94c1.23,2.31,2.37,4.71,3.41,7.2Z"/>
          <path class="cls-1" d="M342.23,877.37h-22.52c-2.53,0-4.6-.63-6.23-1.89-1.62-1.26-2.8-2.83-3.52-4.71l-11.69-31.94h-64.85l-11.69,31.94c-.58,1.66-1.72,3.18-3.41,4.55-1.7,1.37-3.77,2.06-6.23,2.06h-22.63l61.5-156.55h29.77l61.5,156.55ZM240.89,818.25h49.91l-19.06-52.07c-.86-2.31-1.82-5.03-2.87-8.17-1.05-3.14-2.08-6.55-3.08-10.23-1.01,3.68-2,7.11-2.98,10.29-.97,3.17-1.93,5.95-2.87,8.34l-19.06,51.86Z"/>
          <path class="cls-1" d="M445.51,749.29c-.8,1.59-1.72,2.71-2.76,3.36-1.05.65-2.29.97-3.73.97s-3.07-.56-4.87-1.68c-1.8-1.12-3.93-2.37-6.39-3.73-2.45-1.37-5.32-2.62-8.61-3.74-3.29-1.12-7.17-1.68-11.64-1.68-4.04,0-7.56.49-10.56,1.46-3,.97-5.52,2.33-7.58,4.06-2.06,1.73-3.59,3.81-4.6,6.23-1.01,2.42-1.51,5.07-1.51,7.96,0,3.68,1.03,6.75,3.08,9.2,2.06,2.46,4.78,4.55,8.17,6.28,3.39,1.73,7.25,3.28,11.58,4.66,4.33,1.37,8.75,2.83,13.26,4.38,4.51,1.55,8.93,3.35,13.27,5.41,4.33,2.06,8.19,4.66,11.58,7.79,3.39,3.14,6.12,6.99,8.17,11.53,2.06,4.55,3.08,10.07,3.08,16.56,0,7.07-1.21,13.7-3.63,19.87-2.42,6.17-5.95,11.55-10.61,16.13-4.66,4.58-10.34,8.19-17.05,10.83-6.71,2.63-14.4,3.95-23.06,3.95-4.98,0-9.89-.49-14.73-1.46-4.83-.97-9.47-2.36-13.91-4.17-4.44-1.8-8.59-3.97-12.45-6.5-3.86-2.52-7.31-5.34-10.34-8.44l8.45-13.97c.79-1.01,1.75-1.86,2.87-2.54,1.12-.69,2.37-1.03,3.73-1.03,1.8,0,3.75.74,5.85,2.22,2.09,1.48,4.56,3.13,7.42,4.93,2.85,1.8,6.21,3.45,10.07,4.93,3.86,1.48,8.5,2.22,13.91,2.22,8.3,0,14.73-1.97,19.27-5.9,4.55-3.93,6.82-9.58,6.82-16.94,0-4.11-1.03-7.47-3.08-10.07-2.06-2.6-4.78-4.78-8.17-6.55-3.39-1.77-7.25-3.26-11.58-4.49-4.33-1.23-8.73-2.56-13.21-4.01-4.48-1.44-8.88-3.17-13.21-5.2-4.33-2.02-8.2-4.66-11.59-7.9-3.39-3.25-6.11-7.31-8.17-12.18-2.06-4.87-3.08-10.88-3.08-18.03,0-5.7,1.14-11.26,3.41-16.67,2.27-5.41,5.59-10.21,9.96-14.4,4.37-4.18,9.73-7.54,16.08-10.07,6.35-2.52,13.61-3.79,21.76-3.79,9.24,0,17.75,1.45,25.55,4.33,7.79,2.89,14.44,6.93,19.92,12.13l-7.14,13.75Z"/>
          <path class="cls-1" d="M591.35,720.81v23.93h-47.1v132.63h-29.12v-132.63h-47.31v-23.93h123.53Z"/>
          <path class="cls-1" d="M711.84,720.81v23.17h-69.4v43.42h54.67v22.41h-54.67v44.28h69.4v23.28h-98.74v-156.55h98.74Z"/>
          <path class="cls-1" d="M770.41,816.2v61.17h-29.12v-156.55h47.75c10.68,0,19.83,1.1,27.44,3.3,7.62,2.2,13.86,5.29,18.73,9.25,4.87,3.97,8.44,8.72,10.72,14.24,2.27,5.52,3.41,11.61,3.41,18.24,0,5.27-.78,10.25-2.33,14.94-1.55,4.69-3.79,8.95-6.71,12.78-2.92,3.83-6.54,7.18-10.83,10.07-4.3,2.89-9.18,5.2-14.67,6.93,3.68,2.1,6.86,5.09,9.53,8.99l39.19,57.81h-26.2c-2.53,0-4.68-.51-6.44-1.52-1.77-1.01-3.27-2.45-4.49-4.33l-32.92-50.13c-1.23-1.87-2.58-3.21-4.06-4-1.48-.79-3.66-1.19-6.55-1.19h-12.45ZM770.41,795.3h18.19c5.48,0,10.27-.68,14.35-2.06,4.08-1.37,7.43-3.27,10.07-5.68,2.63-2.42,4.6-5.29,5.9-8.61,1.3-3.32,1.95-6.96,1.95-10.93,0-7.94-2.62-14.04-7.85-18.3-5.23-4.25-13.23-6.39-23.98-6.39h-18.62v51.97Z"/>
          <path class="cls-1" d="M993.44,821.72c0,8.81-1.08,16.75-3.25,23.82-2.17,7.07-5.39,13.1-9.69,18.08-4.3,4.98-9.65,8.8-16.08,11.48-6.42,2.67-13.89,4-22.41,4-3.9,0-7.72-.23-11.48-.7-3.75-.47-7.69-1.21-11.8-2.22l1.52-17.32c.14-1.59.74-2.87,1.79-3.85,1.04-.97,2.58-1.46,4.6-1.46,1.23,0,2.83.25,4.82.76,1.99.51,4.49.76,7.52.76,4.11,0,7.76-.59,10.94-1.79,3.17-1.19,5.83-3.08,7.96-5.68,2.13-2.6,3.73-5.97,4.82-10.13,1.08-4.15,1.62-9.18,1.62-15.1v-101.55h29.12v100.9Z"/>
          <path class="cls-1" d="M1160.28,877.37h-22.52c-2.53,0-4.6-.63-6.23-1.89-1.62-1.26-2.8-2.83-3.52-4.71l-11.69-31.94h-64.85l-11.69,31.94c-.58,1.66-1.72,3.18-3.41,4.55-1.7,1.37-3.77,2.06-6.23,2.06h-22.63l61.5-156.55h29.77l61.5,156.55ZM1058.95,818.25h49.91l-19.06-52.07c-.86-2.31-1.82-5.03-2.87-8.17-1.05-3.14-2.08-6.55-3.08-10.23-1.01,3.68-2,7.11-2.98,10.29-.97,3.17-1.93,5.95-2.87,8.34l-19.06,51.86Z"/>
          <path class="cls-1" d="M1281.76,840.45c1.59,0,2.96.62,4.11,1.84l11.48,12.45c-6.35,7.87-14.17,13.9-23.44,18.08-9.27,4.18-20.41,6.28-33.4,6.28-11.62,0-22.07-1.98-31.34-5.95-9.28-3.97-17.2-9.49-23.76-16.56-6.57-7.07-11.6-15.52-15.1-25.34-3.5-9.82-5.25-20.53-5.25-32.16s1.95-22.54,5.85-32.32c3.9-9.78,9.38-18.2,16.46-25.28,7.07-7.07,15.54-12.58,25.39-16.51,9.85-3.93,20.73-5.9,32.64-5.9s21.78,1.86,30.48,5.58c8.7,3.72,16.15,8.65,22.36,14.78l-9.75,13.54c-.58.86-1.32,1.62-2.22,2.27-.9.65-2.15.97-3.73.97s-3.36-.65-5.09-1.95c-1.73-1.3-3.94-2.71-6.61-4.23-2.67-1.51-6.04-2.92-10.12-4.22-4.08-1.3-9.26-1.95-15.54-1.95-7.37,0-14.13,1.28-20.3,3.85-6.17,2.56-11.48,6.23-15.92,10.99-4.44,4.76-7.9,10.55-10.39,17.38-2.49,6.82-3.73,14.49-3.73,23s1.24,16.64,3.73,23.49c2.49,6.86,5.86,12.63,10.12,17.32,4.26,4.69,9.27,8.28,15.05,10.78,5.77,2.49,11.98,3.73,18.62,3.73,3.97,0,7.56-.22,10.77-.65,3.21-.43,6.17-1.12,8.88-2.06,2.7-.94,5.27-2.14,7.69-3.62,2.42-1.48,4.82-3.3,7.2-5.47.72-.65,1.48-1.17,2.27-1.57.79-.39,1.66-.59,2.6-.59Z"/>
          <path class="cls-1" d="M1472.74,799.09c0,11.48-1.92,22.11-5.74,31.89-3.83,9.78-9.2,18.24-16.13,25.39-6.93,7.15-15.27,12.72-25.01,16.73-9.75,4.01-20.54,6.01-32.37,6.01s-22.65-2-32.42-6.01c-9.78-4-18.16-9.58-25.12-16.73-6.97-7.14-12.36-15.61-16.18-25.39-3.83-9.78-5.74-20.41-5.74-31.89s1.91-22.1,5.74-31.88c3.82-9.78,9.22-18.24,16.18-25.39,6.96-7.15,15.34-12.72,25.12-16.73,9.78-4.01,20.59-6.01,32.42-6.01s22.63,2.02,32.37,6.06c9.74,4.04,18.08,9.62,25.01,16.73,6.93,7.11,12.31,15.56,16.13,25.34,3.82,9.78,5.74,20.41,5.74,31.88ZM1442.86,799.09c0-8.59-1.14-16.29-3.41-23.11-2.27-6.82-5.54-12.61-9.8-17.38-4.26-4.76-9.44-8.41-15.54-10.93-6.1-2.53-12.97-3.79-20.62-3.79s-14.54,1.26-20.68,3.79c-6.13,2.53-11.35,6.17-15.64,10.93-4.3,4.76-7.6,10.56-9.91,17.38-2.31,6.82-3.46,14.53-3.46,23.11s1.15,16.3,3.46,23.11c2.31,6.82,5.61,12.6,9.91,17.32,4.29,4.73,9.51,8.35,15.64,10.88,6.14,2.53,13.03,3.79,20.68,3.79s14.52-1.26,20.62-3.79c6.1-2.52,11.28-6.15,15.54-10.88,4.26-4.73,7.52-10.5,9.8-17.32,2.27-6.82,3.41-14.52,3.41-23.11Z"/>
          <path class="cls-1" d="M1498.94,877.37v-156.55h54.02c10.25,0,19,.97,26.26,2.92,7.25,1.95,13.21,4.73,17.86,8.34,4.66,3.61,8.07,7.98,10.23,13.1,2.17,5.13,3.25,10.9,3.25,17.32,0,3.68-.54,7.2-1.62,10.56-1.08,3.36-2.76,6.49-5.03,9.42-2.28,2.92-5.16,5.58-8.66,7.96-3.5,2.38-7.67,4.4-12.5,6.06,21.51,4.84,32.26,16.46,32.26,34.86,0,6.64-1.27,12.78-3.79,18.4-2.53,5.63-6.21,10.49-11.04,14.56-4.83,4.08-10.79,7.27-17.86,9.58-7.07,2.31-15.16,3.46-24.25,3.46h-59.11ZM1528.06,788.59h23.28c9.89,0,17.4-1.8,22.52-5.41,5.12-3.61,7.69-9.34,7.69-17.21s-2.31-13.96-6.93-17.43c-4.62-3.46-11.84-5.2-21.65-5.2h-24.9v45.26ZM1528.06,808.73v45.9h29.56c5.41,0,9.94-.65,13.59-1.95,3.64-1.3,6.57-3.03,8.77-5.2,2.2-2.17,3.79-4.69,4.76-7.58.97-2.89,1.46-5.95,1.46-9.2s-.54-6.44-1.62-9.15c-1.08-2.7-2.78-5.01-5.09-6.93-2.31-1.91-5.27-3.38-8.87-4.39-3.61-1.01-7.98-1.51-13.1-1.51h-29.45Z"/>
          <path class="cls-1" d="M1727.16,749.29c-.8,1.59-1.72,2.71-2.76,3.36-1.05.65-2.29.97-3.73.97s-3.07-.56-4.87-1.68c-1.8-1.12-3.93-2.37-6.39-3.73-2.45-1.37-5.32-2.62-8.61-3.74-3.29-1.12-7.17-1.68-11.64-1.68-4.04,0-7.56.49-10.56,1.46-3,.97-5.52,2.33-7.58,4.06-2.06,1.73-3.59,3.81-4.6,6.23-1.01,2.42-1.51,5.07-1.51,7.96,0,3.68,1.03,6.75,3.08,9.2,2.06,2.46,4.78,4.55,8.17,6.28,3.39,1.73,7.25,3.28,11.58,4.66,4.33,1.37,8.75,2.83,13.26,4.38,4.51,1.55,8.93,3.35,13.27,5.41,4.33,2.06,8.19,4.66,11.58,7.79,3.39,3.14,6.12,6.99,8.17,11.53,2.06,4.55,3.08,10.07,3.08,16.56,0,7.07-1.21,13.7-3.63,19.87-2.42,6.17-5.95,11.55-10.61,16.13-4.66,4.58-10.34,8.19-17.05,10.83-6.71,2.63-14.4,3.95-23.06,3.95-4.98,0-9.89-.49-14.73-1.46-4.83-.97-9.47-2.36-13.91-4.17-4.44-1.8-8.59-3.97-12.45-6.5-3.86-2.52-7.31-5.34-10.34-8.44l8.45-13.97c.79-1.01,1.75-1.86,2.87-2.54,1.12-.69,2.37-1.03,3.73-1.03,1.8,0,3.75.74,5.85,2.22,2.09,1.48,4.56,3.13,7.42,4.93,2.85,1.8,6.21,3.45,10.07,4.93,3.86,1.48,8.5,2.22,13.91,2.22,8.3,0,14.73-1.97,19.27-5.9,4.55-3.93,6.82-9.58,6.82-16.94,0-4.11-1.03-7.47-3.08-10.07-2.06-2.6-4.78-4.78-8.17-6.55-3.39-1.77-7.25-3.26-11.58-4.49-4.33-1.23-8.73-2.56-13.21-4.01-4.48-1.44-8.88-3.17-13.21-5.2-4.33-2.02-8.2-4.66-11.59-7.9-3.39-3.25-6.11-7.31-8.17-12.18-2.06-4.87-3.08-10.88-3.08-18.03,0-5.7,1.14-11.26,3.41-16.67,2.27-5.41,5.59-10.21,9.96-14.4,4.37-4.18,9.73-7.54,16.08-10.07,6.35-2.52,13.61-3.79,21.76-3.79,9.24,0,17.75,1.45,25.55,4.33,7.79,2.89,14.44,6.93,19.92,12.13l-7.14,13.75Z"/>
        </g>
        <circle class="cls-1" cx="247.48" cy="679.65" r="12.08"/>
        <circle class="cls-1" cx="285.6" cy="679.65" r="12.08"/>
      </g>
    </g>
  </g>
  <g>
    <g>
      <g>
        <path class="cls-1" d="M331.38,562.05l5.01-5.96c4.53,3.93,9.14,6.16,14.95,6.16,5.15,0,8.4-2.44,8.4-5.96v-.13c0-3.39-1.9-5.21-10.69-7.24-10.08-2.44-15.77-5.42-15.77-14.14v-.14c0-8.12,6.77-13.73,16.17-13.73,6.9,0,12.39,2.1,17.19,5.95l-4.47,6.3c-4.26-3.18-8.53-4.87-12.86-4.87-4.87,0-7.71,2.51-7.71,5.62v.13c0,3.66,2.17,5.28,11.3,7.45,10.02,2.43,15.16,6.02,15.16,13.87v.13c0,8.87-6.97,14.14-16.92,14.14-7.24,0-14.07-2.5-19.76-7.58Z"/>
        <path class="cls-1" d="M377.92,521.58h35.12v7.45h-26.8v12.31h23.75v7.45h-23.75v12.72h27.14v7.45h-35.46v-47.37Z"/>
        <path class="cls-1" d="M423.3,521.58h17.67c14.89,0,25.17,10.22,25.17,23.55v.14c0,13.33-10.29,23.69-25.17,23.69h-17.67v-47.37ZM431.62,529.16v32.22h9.34c9.94,0,16.44-6.7,16.44-15.98v-.13c0-9.27-6.5-16.11-16.44-16.11h-9.34Z"/>
        <path class="cls-1" d="M489.73,521.25h7.72l20.84,47.71h-8.8l-4.8-11.44h-22.4l-4.87,11.44h-8.53l20.84-47.71ZM501.65,550.14l-8.19-18.95-8.12,18.95h16.31Z"/>
        <path class="cls-1" d="M526.46,521.58h7.72l25.38,32.75v-32.75h8.19v47.37h-6.97l-26.12-33.71v33.71h-8.19v-47.37Z"/>
      </g>
      <g>
        <path class="cls-1" d="M1224.86,529.71l-8.53,2.37-1.76-6.76,12.79-4.06h5.75v47.71h-8.25v-39.25Z"/>
        <path class="cls-1" d="M1279.03,547.24c-2.65,3.18-6.3,5.07-11.17,5.07-10.08,0-16.78-5.88-16.78-15.02v-.13c0-9.27,7.18-16.38,17.66-16.38,5.96,0,9.81,1.69,13.2,5,3.45,3.53,5.68,8.74,5.68,18.07v.14c0,15.22-7.51,25.78-20.3,25.78-6.57,0-11.17-2.37-15.16-5.69l4.53-6.36c3.59,2.97,6.77,4.47,10.83,4.47,8.39,0,11.43-8.66,11.51-14.96ZM1278.69,536.82v-.14c0-4.94-3.85-8.73-9.88-8.73s-9.4,3.93-9.4,8.79v.14c0,4.94,3.79,8.46,9.67,8.46s9.61-3.92,9.61-8.52Z"/>
        <path class="cls-1" d="M1302.21,556.04v-.13c0-5.69,3.18-9.27,8.53-11.51-3.99-2.1-6.9-5.28-6.9-10.56v-.13c0-7.24,6.97-12.79,16.45-12.79s16.45,5.48,16.45,12.79v.13c0,5.29-2.91,8.47-6.9,10.56,5.21,2.37,8.52,5.75,8.52,11.37v.14c0,8.46-7.71,13.73-18.06,13.73s-18.07-5.41-18.07-13.6ZM1330.23,555.57v-.14c0-4.33-4.33-7.18-9.94-7.18s-9.88,2.84-9.88,7.18v.14c0,3.85,3.65,7.1,9.88,7.1s9.94-3.18,9.94-7.1ZM1328.74,534.65v-.13c0-3.66-3.39-6.63-8.46-6.63s-8.46,2.97-8.46,6.56v.14c0,4.13,3.58,7.03,8.46,7.03s8.46-2.91,8.46-6.97Z"/>
        <path class="cls-1" d="M1352.4,562.4l16.32-13.87c6.49-5.55,8.87-8.52,8.87-12.79,0-4.67-3.32-7.38-7.65-7.38s-7.31,2.38-10.9,7.11l-5.95-4.67c4.54-6.3,9-9.88,17.46-9.88,9.27,0,15.63,5.68,15.63,14.14v.13c0,7.45-3.92,11.51-12.31,18.35l-9.75,8.12h22.54v7.31h-34.25v-6.57Z"/>
      </g>
      <rect class="cls-1" x="301.67" y="490.99" width="293.58" height="4.6"/>
      <rect class="cls-1" x="301.67" y="593.38" width="293.58" height="4.6"/>
      <rect class="cls-1" x="1141.87" y="490.99" width="293.58" height="4.6"/>
    </g>
    <rect class="cls-1" x="1141.87" y="593.38" width="293.58" height="4.6"/>
  </g>
</svg>