<?xml version="1.0" encoding="UTF-8"?>
<svg id="Layer_1" data-name="Layer 1" xmlns="http://www.w3.org/2000/svg" viewBox="0 0 1249.44 1157.3">
  <defs>
    <style>
      .cls-1 {
        fill: #fff;
      }
    </style>
  </defs>
  <g>
    <path class="cls-1" d="M192.6,331.81c1.72.19,3.44.4,5.17.62-1.13-1.38-2.24-2.76-3.32-4.16-1.07-1.39-2.06-2.79-2.97-4.2l-34-52.99c-.43-.66-.73-1.26-.9-1.81s-.22-1.08-.14-1.59c.08-.51.24-1.04.49-1.59.25-.55.58-1.18.99-1.91l6.87-12.29,87.51,48.9-8.01,14.35-56.53-31.59c-1.05-.59-2.18-1.26-3.4-2.02-1.21-.76-2.43-1.56-3.66-2.4l34.85,54.18c.79,1.24,1.23,2.51,1.31,3.83.09,1.32-.24,2.62-.96,3.91l-1.25,2.24c-.72,1.29-1.66,2.25-2.83,2.87-1.17.62-2.49.92-3.95.89l-64.79-1.02c1.42.58,2.79,1.2,4.09,1.85,1.3.65,2.5,1.28,3.59,1.89l56.53,31.59-8.01,14.34-87.52-48.9,6.87-12.29c.41-.73.78-1.34,1.11-1.84.33-.5.7-.92,1.1-1.25.4-.33.88-.58,1.45-.74.57-.16,1.24-.23,2.03-.22l63.21,1.01c1.67.04,3.37.15,5.09.34Z"/>
    <path class="cls-1" d="M326.83,218.69l-9.77,10.6c-1.1,1.19-2.3,1.89-3.6,2.11-1.3.22-2.55.09-3.74-.39l-20.11-8.36-28.15,30.53,9.96,19.37c.53.99.75,2.19.66,3.58-.09,1.39-.67,2.67-1.73,3.82l-9.83,10.65-47-96.91,12.92-14.02,100.39,39.02ZM255.01,240.74l21.67-23.5-32.79-13.64c-1.47-.6-3.16-1.33-5.1-2.2-1.93-.87-3.99-1.86-6.15-2.99,1.29,2.08,2.48,4.03,3.55,5.87,1.07,1.84,1.96,3.49,2.68,4.97l16.14,31.49Z"/>
    <path class="cls-1" d="M333.37,112.22c.2,1.12.16,2.04-.13,2.78-.29.73-.81,1.38-1.55,1.93-.74.55-1.79.89-3.14,1.01s-2.92.29-4.71.53c-1.78.24-3.73.7-5.85,1.38-2.11.69-4.32,1.89-6.61,3.6-2.07,1.55-3.69,3.15-4.86,4.79-1.16,1.65-1.94,3.31-2.33,4.99-.39,1.68-.38,3.33.02,4.96.41,1.63,1.16,3.18,2.27,4.66,1.41,1.89,3.12,3.07,5.11,3.54,2,.47,4.19.5,6.6.09,2.41-.41,4.98-1.09,7.73-2.05s5.57-1.9,8.48-2.83c2.91-.93,5.87-1.7,8.88-2.3,3.01-.6,5.99-.75,8.93-.44,2.94.31,5.82,1.24,8.61,2.78,2.8,1.55,5.44,3.99,7.93,7.32,2.71,3.63,4.63,7.49,5.75,11.58,1.12,4.09,1.37,8.21.74,12.34-.64,4.14-2.17,8.17-4.6,12.09s-5.87,7.54-10.32,10.86c-2.56,1.91-5.26,3.54-8.11,4.89-2.86,1.35-5.77,2.41-8.74,3.19-2.97.78-5.93,1.25-8.88,1.44-2.95.18-5.79.06-8.54-.37l-1.02-10.4c.02-.82.19-1.62.5-2.4.31-.78.82-1.43,1.52-1.96.93-.69,2.21-1.06,3.85-1.1,1.64-.04,3.54-.15,5.69-.31s4.5-.61,7.06-1.33c2.55-.72,5.21-2.12,7.99-4.19,4.26-3.18,6.8-6.65,7.63-10.41s-.17-7.53-2.99-11.31c-1.58-2.11-3.39-3.44-5.44-3.98-2.05-.55-4.29-.62-6.7-.23-2.42.39-4.97,1.11-7.67,2.13-2.69,1.03-5.46,2.03-8.31,3.01-2.85.98-5.77,1.77-8.77,2.39-2.99.62-5.99.75-8.97.38-2.98-.37-5.94-1.41-8.86-3.12-2.92-1.71-5.76-4.4-8.49-8.07-2.18-2.93-3.73-6.21-4.64-9.86-.91-3.65-1.04-7.38-.41-11.2s2.1-7.6,4.39-11.33c2.29-3.73,5.53-7.15,9.71-10.28,4.74-3.54,9.66-6.06,14.77-7.57,5.11-1.5,10.06-1.97,14.87-1.41l1.6,9.79Z"/>
    <path class="cls-1" d="M421.95,42.44l6.95,13.66-26.88,13.67,38.5,75.7-16.63,8.45-38.5-75.7-27.01,13.74-6.95-13.66,70.51-35.86Z"/>
    <path class="cls-1" d="M514.97,11.99l4.3,14.2-42.54,12.88,8.06,26.61,33.51-10.15,4.16,13.74-33.51,10.15,8.22,27.14,42.53-12.88,4.32,14.27-60.52,18.32-29.05-95.95,60.52-18.32Z"/>
    <path class="cls-1" d="M579.46,62.54l4.29,38.93-18.54,2.04-10.99-99.65,30.39-3.35c6.8-.75,12.7-.69,17.7.17,5,.87,9.19,2.39,12.57,4.58,3.38,2.18,5.99,4.95,7.82,8.31,1.84,3.35,2.99,7.15,3.45,11.37.37,3.35.22,6.58-.43,9.67-.66,3.1-1.78,5.96-3.38,8.6-1.59,2.64-3.65,5.03-6.18,7.17-2.53,2.14-5.48,3.95-8.85,5.44,2.49,1.07,4.72,2.76,6.69,5.05l29,34.05-16.68,1.84c-1.61.18-3.01,0-4.2-.51-1.2-.52-2.25-1.33-3.16-2.44l-24.47-29.6c-.91-1.11-1.86-1.86-2.86-2.26-1-.4-2.42-.5-4.26-.3l-7.92.88ZM577.99,49.24l11.58-1.28c3.49-.38,6.49-1.16,8.99-2.32,2.5-1.16,4.5-2.6,6.01-4.32,1.51-1.72,2.56-3.69,3.16-5.89.59-2.2.75-4.57.47-7.1-.56-5.05-2.65-8.75-6.28-11.1-3.63-2.34-8.87-3.14-15.71-2.38l-11.86,1.31,3.65,33.08Z"/>
    <path class="cls-1" d="M742.14,68.04c-.72,5.59-2.06,10.54-4.01,14.86-1.96,4.32-4.5,7.88-7.64,10.69-3.14,2.81-6.85,4.8-11.15,5.97-4.3,1.17-9.16,1.4-14.56.71-2.48-.32-4.89-.78-7.23-1.39-2.35-.6-4.79-1.4-7.32-2.38l2.39-10.88c.22-1,.7-1.76,1.45-2.29s1.76-.72,3.04-.55c.78.1,1.78.39,3,.88,1.22.48,2.79.85,4.72,1.1,2.61.34,4.98.26,7.09-.24,2.11-.5,3.95-1.48,5.52-2.96,1.57-1.48,2.86-3.48,3.89-6.03,1.03-2.55,1.78-5.7,2.27-9.46l8.33-64.5,18.49,2.39-8.27,64.09Z"/>
    <path class="cls-1" d="M843.93,132.15l-13.8-4.2c-1.55-.47-2.7-1.24-3.46-2.32-.76-1.08-1.19-2.26-1.28-3.54l-1.21-21.75-39.73-12.09-13.12,17.39c-.66.91-1.64,1.63-2.94,2.15-1.3.52-2.69.56-4.19.1l-13.86-4.22,66.85-84.45,18.24,5.55,8.49,107.37ZM792.87,77.05l30.58,9.3-1.97-35.45c-.1-1.58-.18-3.43-.23-5.54-.06-2.12-.05-4.4.02-6.84-1.31,2.07-2.55,3.98-3.74,5.75-1.19,1.76-2.29,3.29-3.31,4.57l-21.34,28.22Z"/>
    <path class="cls-1" d="M925.59,149.35c.9.48,1.49,1.24,1.76,2.28l2.7,10.5c-5.97,2.51-12.2,3.55-18.7,3.1-6.5-.45-13.41-2.64-20.74-6.58-6.56-3.52-11.85-7.81-15.88-12.86-4.03-5.05-6.83-10.56-8.39-16.54-1.57-5.98-1.85-12.27-.84-18.87,1-6.6,3.26-13.17,6.78-19.73,3.56-6.64,7.93-12.12,13.09-16.46s10.81-7.43,16.94-9.28c6.13-1.85,12.58-2.39,19.33-1.62,6.75.77,13.48,2.95,20.2,6.56,6.55,3.52,11.72,7.65,15.5,12.38,3.78,4.73,6.49,9.77,8.14,15.11l-9.6,4.68c-.59.31-1.24.52-1.94.61-.71.09-1.51-.1-2.41-.58-.93-.5-1.69-1.38-2.28-2.64-.58-1.26-1.4-2.72-2.45-4.38-1.05-1.67-2.52-3.48-4.43-5.45-1.91-1.97-4.63-3.9-8.17-5.81-4.15-2.23-8.36-3.56-12.62-3.98-4.26-.42-8.36.04-12.31,1.38-3.95,1.34-7.66,3.56-11.13,6.65-3.47,3.09-6.5,7.04-9.08,11.85-2.67,4.97-4.34,9.76-5.01,14.39s-.52,8.9.46,12.84c.98,3.94,2.72,7.48,5.23,10.64,2.5,3.16,5.63,5.74,9.37,7.75,2.24,1.2,4.33,2.17,6.28,2.9,1.94.73,3.82,1.24,5.63,1.53,1.81.29,3.62.39,5.43.28s3.72-.4,5.72-.9c.61-.15,1.19-.21,1.76-.2s1.11.17,1.65.45Z"/>
    <path class="cls-1" d="M1043.51,208.9c-4.77,5.59-10.12,9.97-16.06,13.14-5.93,3.17-12.07,5.06-18.41,5.66-6.34.6-12.72-.15-19.13-2.25-6.41-2.1-12.5-5.61-18.26-10.54s-10.2-10.39-13.29-16.41c-3.1-6.02-4.86-12.21-5.28-18.59-.42-6.38.47-12.74,2.67-19.09,2.21-6.35,5.69-12.32,10.47-17.91,4.77-5.59,10.12-9.97,16.05-13.14s12.08-5.05,18.44-5.63c6.36-.58,12.76.18,19.19,2.3,6.43,2.12,12.53,5.63,18.29,10.56,5.76,4.92,10.18,10.4,13.24,16.41,3.07,6.02,4.81,12.2,5.22,18.55.42,6.34-.48,12.69-2.68,19.04-2.21,6.35-5.69,12.32-10.46,17.91ZM1028.96,196.47c3.57-4.18,6.22-8.41,7.95-12.68,1.73-4.27,2.55-8.45,2.46-12.54-.09-4.09-1.1-8.02-3.02-11.79-1.92-3.77-4.74-7.24-8.46-10.42-3.73-3.18-7.61-5.43-11.65-6.75-4.04-1.32-8.09-1.72-12.17-1.18s-8.09,1.98-12.05,4.34c-3.96,2.36-7.72,5.63-11.3,9.81-3.57,4.18-6.22,8.41-7.92,12.7-1.71,4.28-2.51,8.47-2.38,12.56.12,4.09,1.16,8.02,3.09,11.8,1.94,3.78,4.77,7.26,8.5,10.44,3.72,3.18,7.6,5.43,11.61,6.73,4.02,1.3,8.05,1.69,12.09,1.16,4.04-.53,8.03-1.98,11.98-4.36,3.94-2.38,7.7-5.66,11.27-9.84Z"/>
    <path class="cls-1" d="M1022.31,261.4l79.6-60.95,21.03,27.47c3.99,5.21,6.9,10.04,8.73,14.49,1.83,4.45,2.74,8.56,2.72,12.33-.02,3.77-.92,7.2-2.68,10.3-1.76,3.1-4.27,5.9-7.54,8.4-1.87,1.43-3.87,2.53-6,3.29-2.13.75-4.37,1.12-6.75,1.11-2.37-.02-4.84-.46-7.42-1.31-2.58-.85-5.23-2.18-7.95-4,5.91,12.82,4.19,22.81-5.16,29.98-3.38,2.59-6.99,4.33-10.84,5.24-3.84.91-7.75.93-11.7.05-3.96-.87-7.9-2.65-11.83-5.35-3.93-2.7-7.66-6.36-11.2-10.98l-23.02-30.05ZM1068.55,249.48l-23.34,17.87,11.51,15.03c2.11,2.75,4.2,4.8,6.28,6.15,2.08,1.35,4.1,2.16,6.06,2.44,1.96.28,3.86.1,5.71-.53s3.6-1.58,5.25-2.84c1.72-1.32,3.07-2.79,4.02-4.39.95-1.6,1.47-3.37,1.54-5.28.07-1.92-.34-3.99-1.23-6.22-.89-2.23-2.33-4.64-4.33-7.25l-11.47-14.97ZM1078.79,241.64l9.06,11.84c3.85,5.03,7.69,8.14,11.52,9.34,3.83,1.2,7.74.27,11.75-2.79,4.14-3.17,6.2-6.61,6.16-10.31-.04-3.7-1.97-8.04-5.79-13.03l-9.7-12.66-23.01,17.62Z"/>
    <path class="cls-1" d="M1175.38,349c-1.14.01-2.04-.18-2.72-.59-.68-.41-1.23-1.02-1.65-1.84-.42-.82-.58-1.91-.47-3.26s.19-2.93.26-4.73c.06-1.8-.08-3.8-.4-5.99-.33-2.2-1.14-4.57-2.46-7.12-1.19-2.3-2.5-4.16-3.93-5.58-1.43-1.42-2.94-2.46-4.53-3.12-1.59-.66-3.22-.93-4.9-.79-1.67.13-3.33.62-4.97,1.47-2.1,1.08-3.54,2.56-4.34,4.46-.79,1.89-1.19,4.05-1.18,6.49,0,2.44.26,5.09.75,7.96.49,2.87.95,5.81,1.39,8.83.44,3.02.71,6.07.81,9.14.1,3.07-.25,6.03-1.04,8.88-.79,2.85-2.18,5.53-4.17,8.03-1.99,2.51-4.83,4.71-8.53,6.61-4.03,2.08-8.15,3.33-12.37,3.76-4.22.43-8.32,0-12.29-1.31-3.98-1.3-7.7-3.48-11.16-6.53-3.47-3.05-6.47-7.04-9.01-11.97-1.46-2.83-2.62-5.77-3.48-8.81-.86-3.04-1.43-6.08-1.71-9.14-.28-3.06-.26-6.05.05-8.99.3-2.94.9-5.73,1.77-8.36l10.43.71c.81.16,1.57.45,2.29.89.72.44,1.28,1.04,1.68,1.82.53,1.03.68,2.35.45,3.98-.23,1.63-.44,3.52-.63,5.67-.19,2.15-.14,4.55.15,7.18.29,2.63,1.23,5.49,2.82,8.57,2.43,4.73,5.44,7.8,9.01,9.24,3.57,1.44,7.45,1.07,11.64-1.08,2.34-1.21,3.95-2.78,4.83-4.71.87-1.93,1.32-4.13,1.33-6.57.01-2.45-.27-5.09-.84-7.91-.57-2.83-1.11-5.72-1.59-8.69-.49-2.97-.8-5.98-.92-9.04-.12-3.06.25-6.03,1.1-8.91.85-2.88,2.37-5.63,4.54-8.22,2.17-2.6,5.29-4.95,9.36-7.04,3.25-1.67,6.74-2.65,10.49-2.95,3.75-.29,7.45.19,11.12,1.45,3.66,1.26,7.15,3.32,10.45,6.2s6.15,6.64,8.54,11.28c2.71,5.26,4.38,10.53,5.02,15.82.65,5.28.29,10.25-1.06,14.9l-9.93-.04Z"/>
  </g>
  <g>
    <path class="cls-1" d="M173.99,763.49l9.7,23.2c2.6,6.23,2.86,11.88,1.13,16.26-1.39,3.23-3.75,5.68-7.25,7.15l-.16.06c-7.08,2.96-12.56.13-16.22-3.37.75,7.28-.8,14.05-8.27,17.18l-.16.06c-9.34,3.9-18.15-1.65-23.13-13.56l-10.12-24.21,54.49-22.78ZM153.99,799.19l-7.19-17.2-19.23,8.04,7.65,18.29c3.45,8.25,9.26,11.86,15.33,9.32l.16-.07c5.92-2.47,7.26-8.89,3.29-18.38ZM174.11,804.23c5.37-2.25,7.08-7.99,3.83-15.78l-6.93-16.58-18.76,7.84,6.74,16.11c3.09,7.39,8.58,11.13,14.97,8.46l.16-.06Z"/>
    <path class="cls-1" d="M218.72,853.65l3.3,5.3-36.33,54.28-3.79-6.09,9.61-14.12-16.97-27.31-16.96,2.29-3.61-5.8,64.75-8.54ZM195.29,887.59l18.44-27.26-32.65,4.39,14.21,22.87Z"/>
    <path class="cls-1" d="M227.7,920.44l.13-.11c12.24-10.62,30.88-11.03,42.49,2.36,6.53,7.52,8.4,14.06,8.51,21.78l-6.65.07c0-6.04-1.2-11.69-6.68-18.01-8.57-9.88-23.06-9.71-33.01-1.09l-.12.11c-10.65,9.24-12.64,22.91-3.24,33.75,4.43,5.1,10.5,8.1,15.63,9.01l11.09-9.62-11.78-13.58,4.53-3.93,15.98,18.43-17.79,15.43c-7.29-.94-15.84-4.47-22.36-12-12.17-14.03-9.49-31.55,3.26-42.61Z"/>
    <path class="cls-1" d="M309.47,964.63l32.63,27.57-3.92,4.64-27.54-23.27-13.02,15.42,24.64,20.81-3.92,4.64-24.64-20.81-13.35,15.8,27.86,23.54-3.92,4.64-32.96-27.84,38.14-45.15Z"/>
    <path class="cls-1" d="M368.21,1011.04l21.64,13.3c6.19,3.8,10,8.72,11.22,13.83.94,3.95.22,8.35-2.21,12.31l-.09.14c-5.12,8.34-13.88,9.7-22.67,6.27l2.82,30.07-6.97-4.29-2.58-28.53-14.38-8.84-12.02,19.56-5.68-3.49,30.93-50.34ZM373.58,1049.7c7.55,4.64,15.33,4.07,19.31-2.4l.09-.14c3.8-6.18,1.35-12.84-6.78-17.83l-15.53-9.54-12.55,20.42,15.46,9.5Z"/>
    <path class="cls-1" d="M438.74,1050.43l6.06,2.78-24.6,53.71-6.06-2.78,24.6-53.71Z"/>
    <path class="cls-1" d="M543.36,1137.83c-6.54,4.51-13.37,6.44-20.87,4.77-10.38-2.32-16.66-10.55-14.51-20.19l.04-.16c1.71-7.66,8.05-12.04,17.63-13.53-2.92-5.49-3.94-9.44-2.93-13.97l.03-.16c1.69-7.58,9.15-12.31,18.29-10.27,8.07,1.8,12.7,8.97,11.1,16.14l-.04.17c-1.64,7.33-7.87,10.87-16.93,11.96l10.18,16.37c3.38-3.14,6.66-6.99,9.78-11.3l4.8,3.67c-3.76,4.87-7.5,9.22-11.55,12.64l7.75,12.54-5.79,2.69-6.98-11.33ZM540.31,1132.92l-11.86-19.33c-8.28,1.09-12.71,5.03-13.79,9.89l-.04.17c-1.38,6.18,2.51,11.98,9.6,13.56,5.44,1.21,10.86-.6,16.09-4.28ZM545.93,1099.59l.04-.17c1.03-4.61-1.67-8.76-6.37-9.81-5.19-1.16-9.54,1.68-10.59,6.37l-.04.16c-.75,3.38.08,6.24,3.39,11.91,7.89-.84,12.46-3.53,13.56-8.47Z"/>
    <path class="cls-1" d="M643.06,1098.25l6.67-.14.74,35.26,33.17-35.98,8.6-.18-24.76,26.35,27.11,32.68-8.35.18-23.3-28.12-12.3,13,.33,15.86-6.67.14-1.24-59.06Z"/>
    <path class="cls-1" d="M720.14,1124.45l-.03-.17c-2.86-16.04,6.69-32.23,24.39-35.39,17.7-3.16,32.06,8.6,34.92,24.64l.03.17c2.87,16.04-6.68,32.23-24.38,35.39-17.7,3.16-32.06-8.6-34.92-24.64ZM772.66,1115.07l-.03-.17c-2.36-13.21-13.93-22.3-27.22-19.92-13.3,2.37-20.88,14.7-18.52,27.91l.03.17c2.35,13.21,13.93,22.3,27.22,19.92,13.3-2.37,20.87-14.7,18.51-27.91Z"/>
    <path class="cls-1" d="M804.97,1075.89l5.87-2.13,51.16,31.78-16.17-44.5,6.11-2.22,20.19,55.53-5,1.82-52.4-32.5,16.55,45.53-6.11,2.22-20.19-55.53Z"/>
    <path class="cls-1" d="M883.47,1044.31l17.85-10.09c16.16-9.13,33.6-4.35,41.78,10.12l.08.15c8.18,14.47,3.36,32.02-12.8,41.16l-17.85,10.09-29.06-51.43ZM892.3,1046.39l23,40.7,12.05-6.81c13-7.35,16.32-20.85,9.89-32.24l-.08-.15c-6.44-11.39-19.8-15.66-32.81-8.31l-12.05,6.81Z"/>
    <path class="cls-1" d="M956.13,999.1l5.35-3.98,35.29,47.38-5.35,3.98-35.29-47.38Z"/>
    <path class="cls-1" d="M1005.82,966.01l-14.44,13.59-4.22-4.49,33.81-31.8,4.22,4.49-14.44,13.59,36.26,38.53-4.92,4.63-36.26-38.53Z"/>
    <path class="cls-1" d="M1061.02,944.14l-.13-.1c-12.82-10.06-16.49-28.5-5.39-42.65,11.1-14.15,29.65-14.94,42.47-4.88l.13.1c12.82,10.06,16.49,28.5,5.39,42.65-11.1,14.15-29.64,14.94-42.46,4.88ZM1093.96,902.16l-.13-.1c-10.56-8.29-25.24-7.36-33.58,3.27-8.34,10.63-5.77,24.87,4.79,33.16l.13.1c10.56,8.29,25.24,7.36,33.58-3.27,8.34-10.63,5.78-24.87-4.78-33.16Z"/>
    <path class="cls-1" d="M1091.99,851.23l12.18-22.29c3.48-6.37,8.2-10.43,13.24-11.9,3.9-1.14,8.34-.64,12.41,1.58l.15.08c8.59,4.69,10.39,13.37,7.42,22.33l29.88-4.35-3.92,7.18-28.36,4.02-8.09,14.81,20.15,11.01-3.2,5.85-51.84-28.33ZM1130.34,843.91c4.25-7.78,3.28-15.52-3.38-19.16l-.15-.08c-6.37-3.48-12.89-.7-17.46,7.67l-8.74,16,21.04,11.5,8.7-15.92Z"/>
    <path class="cls-1" d="M1127.73,778.87l2.47-6.2,54.9,21.85-2.47,6.2-54.9-21.85Z"/>
  </g>
  <g>
    <path class="cls-1" d="M674.23,784.09h-38.23v70.67c-17.27-.25-36.22-1.14-56.93-2.91v-72.64h-38.23v68.59c-18.6-2.34-38.37-5.33-59.38-9.12v-74.11h-38.23v105.74l15.48,3c76.8,14.87,139.01,19.87,188.01,19.87,97.94,0,142.99-20.01,145.73-21.28l11.36-5.25-.26-12.51c-2.99-142.79-40.65-268.44-108.92-363.34-59.1-82.16-139.39-136.91-220.27-150.22-65.59-10.79-129.89,14.13-171.99,66.67-41.72,52.05-51.98,119.54-27.45,180.52,75.46,187.61,412.05,150.77,426.33,149.11l-4.4-37.97c-3.21.38-321.86,35.22-386.47-125.4-19.31-48-11.15-101.22,21.82-142.35,33.35-41.62,84.16-61.37,135.96-52.86,140.85,23.17,286.4,189.22,296.77,462.78-14.94,4.38-44.6,11.1-90.69,13.13v-70.14"/>
    <path class="cls-1" d="M1005.05,453.06l-.35-.94c-23.29-57.88-60.38-96.02-110.23-113.38-102.02-35.52-219.46,30.33-224.42,33.15l18.91,33.22c1.07-.61,107.57-60.1,193.07-30.23,38.77,13.55,68.04,44.18,87.02,91.04,51.05,150.19-136.42,216.5-144.41,219.24l12.33,36.18c4.79-1.63,117.88-41.05,161.99-130.98,20.77-42.34,22.81-88.54,6.09-137.32Z"/>
  </g>
  <g>
    <rect class="cls-1" x="28.58" y="520.17" width="187.28" height="6.03"/>
    <rect class="cls-1" x="28.58" y="647.83" width="187.28" height="6.03"/>
  </g>
  <g>
    <rect class="cls-1" x="1062.16" y="520.17" width="187.28" height="6.03"/>
    <rect class="cls-1" x="1062.16" y="647.83" width="187.28" height="6.03"/>
  </g>
  <g>
    <path class="cls-1" d="M0,604.16l4.75-5.66c4.31,3.73,8.68,5.85,14.21,5.85,4.88,0,7.97-2.32,7.97-5.66v-.13c0-3.21-1.8-4.95-10.16-6.88-9.57-2.31-14.97-5.14-14.97-13.43v-.13c0-7.71,6.43-13.05,15.36-13.05,6.55,0,11.76,1.99,16.32,5.66l-4.24,5.98c-4.05-3.02-8.1-4.63-12.21-4.63-4.63,0-7.33,2.38-7.33,5.33v.13c0,3.47,2.06,5.01,10.73,7.07,9.51,2.31,14.4,5.72,14.4,13.18v.13c0,8.42-6.62,13.43-16.07,13.43-6.87,0-13.37-2.38-18.76-7.2Z"/>
    <path class="cls-1" d="M44.17,565.73h33.36v7.07h-25.45v11.7h22.56v7.07h-22.56v12.08h25.78v7.07h-33.68v-44.99Z"/>
    <path class="cls-1" d="M87.24,565.73h16.78c14.14,0,23.91,9.71,23.91,22.37v.13c0,12.66-9.77,22.5-23.91,22.5h-16.78v-44.99ZM95.15,572.93v30.6h8.87c9.45,0,15.62-6.36,15.62-15.17v-.13c0-8.81-6.17-15.3-15.62-15.3h-8.87Z"/>
    <path class="cls-1" d="M150.31,565.41h7.33l19.8,45.31h-8.36l-4.56-10.86h-21.27l-4.63,10.86h-8.1l19.8-45.31ZM161.62,592.85l-7.78-18-7.71,18h15.49Z"/>
    <path class="cls-1" d="M185.16,565.73h7.33l24.1,31.11v-31.11h7.78v44.99h-6.62l-24.81-32.01v32.01h-7.78v-44.99Z"/>
  </g>
  <g>
    <path class="cls-1" d="M1093.47,573.44l-8.1,2.25-1.67-6.43,12.15-3.86h5.46v45.31h-7.84v-37.28Z"/>
    <path class="cls-1" d="M1137.83,590.09c-2.51,3.02-5.98,4.82-10.6,4.82-9.58,0-15.94-5.59-15.94-14.27v-.13c0-8.81,6.81-15.56,16.78-15.56,5.66,0,9.32,1.61,12.54,4.76,3.28,3.34,5.4,8.29,5.4,17.16v.13c0,14.46-7.14,24.49-19.28,24.49-6.24,0-10.61-2.25-14.4-5.4l4.31-6.04c3.41,2.83,6.42,4.24,10.28,4.24,7.97,0,10.87-8.23,10.93-14.21ZM1137.5,580.19v-.13c0-4.69-3.66-8.29-9.38-8.29s-8.93,3.73-8.93,8.36v.13c0,4.69,3.6,8.03,9.19,8.03s9.12-3.73,9.12-8.1Z"/>
    <path class="cls-1" d="M1152.75,598.44v-.13c0-5.4,3.02-8.81,8.1-10.93-3.79-1.99-6.56-5.01-6.56-10.03v-.13c0-6.88,6.62-12.15,15.62-12.15s15.62,5.21,15.62,12.15v.13c0,5.02-2.76,8.03-6.56,10.03,4.95,2.25,8.1,5.46,8.1,10.8v.13c0,8.03-7.33,13.05-17.16,13.05s-17.16-5.14-17.16-12.92ZM1179.36,597.99v-.13c0-4.11-4.11-6.81-9.45-6.81s-9.38,2.7-9.38,6.81v.13c0,3.67,3.47,6.75,9.38,6.75s9.45-3.02,9.45-6.75ZM1177.95,578.13v-.13c0-3.47-3.22-6.3-8.04-6.3s-8.03,2.83-8.03,6.23v.13c0,3.92,3.41,6.69,8.03,6.69s8.04-2.76,8.04-6.62Z"/>
    <path class="cls-1" d="M1193.32,604.49l15.49-13.18c6.17-5.27,8.42-8.1,8.42-12.15,0-4.43-3.15-7.01-7.26-7.01s-6.94,2.25-10.35,6.75l-5.66-4.44c4.31-5.98,8.55-9.38,16.58-9.38,8.81,0,14.85,5.4,14.85,13.43v.13c0,7.07-3.73,10.93-11.7,17.42l-9.26,7.71h21.41v6.94h-32.52v-6.23Z"/>
  </g>
  <circle class="cls-1" cx="195.37" cy="182.78" r="8.9"/>
  <circle class="cls-1" cx="215.85" cy="163.55" r="8.9"/>
</svg>